<svg xmlns="http://www.w3.org/2000/svg" width="48" height="48" viewBox="0 0 24 24" fill="white">
  <path d="M19,7C19.74,7 20.4,7.26 20.9,7.76C21.4,8.26 21.66,8.92 21.66,9.66V11H22C22.55,11 23,11.45 23,12V16C23,16.55 22.55,17 22,17H21C21,18.66 19.66,20 18,20C16.34,20 15,18.66 15,17H9C9,18.66 7.66,20 6,20C4.34,20 3,18.66 3,17H2C1.45,17 1,16.55 1,16V6C1,5.45 1.45,5 2,5H14C14.55,5 15,5.45 15,6V9.5H16.5L19,7M6,15.5C6.83,15.5 7.5,16.17 7.5,17C7.5,17.83 6.83,18.5 6,18.5C5.17,18.5 4.5,17.83 4.5,17C4.5,16.17 5.17,15.5 6,15.5M18,15.5C18.83,15.5 19.5,16.17 19.5,17C19.5,17.83 18.83,18.5 18,18.5C17.17,18.5 16.5,17.83 16.5,17C16.5,16.17 17.17,15.5 18,15.5Z"/>
</svg>