<svg xmlns="http://www.w3.org/2000/svg" viewBox="0 0 30 30">
  <path d="M26.978516 3.0214844C26.978516 3.0214844 18 3 11 10C10.676811 10.323189 10.395406 10.675024 10.140625 11.039062C8.8995439 10.939831 6.9997651 10.972248 6.0273438 11.945312C3.7573437 14.215312 3 18 3 18L8 17.285156L8 19L11 22L12.714844 22L12 27C12 27 15.784688 26.242656 18.054688 23.972656C19.027752 23.000235 19.060169 21.100456 18.960938 19.859375C19.324976 19.604594 19.676811 19.323189 20 19C27 12 26.978516 3.0214844 26.978516 3.0214844 z M 19 9C20.105 9 21 9.895 21 11C21 12.105 20.105 13 19 13C17.895 13 17 12.105 17 11C17 9.895 17.895 9 19 9 z M 7.1992188 19.996094C6.8192188 20.096094 6.4591094 20.286984 6.1621094 20.583984C4.7961094 21.949984 5.0136719 24.984375 5.0136719 24.984375C5.0136719 24.984375 8.0281094 25.219938 9.4121094 23.835938C9.7091094 23.538937 9.9 23.176875 10 22.796875L9.5429688 22.339844C9.4979688 22.403844 9.4701094 22.478156 9.4121094 22.535156C8.4371094 23.510156 6.9746094 23.023438 6.9746094 23.023438C6.9746094 23.023438 6.4868906 21.560938 7.4628906 20.585938C7.5208906 20.527938 7.59225 20.501078 7.65625 20.455078L7.1992188 19.996094 z" fill="#FFFFFF" />
</svg>