<svg xmlns="http://www.w3.org/2000/svg" viewBox="0 0 50 50">
  <path d="M25 3C13.59 3 4.209375 11.680781 3.109375 22.800781L14.300781 28.529297C15.430781 27.579297 16.9 27 18.5 27L18.550781 27C18.940781 26.4 19.389375 25.649141 19.859375 24.869141C20.839375 23.259141 21.939531 21.439062 23.019531 20.039062C23.259531 15.569063 26.97 12 31.5 12C36.19 12 40 15.81 40 20.5C40 25.03 36.430937 28.740469 31.960938 28.980469C30.560938 30.060469 28.750859 31.160859 27.130859 32.130859C26.350859 32.610859 25.6 33.059219 25 33.449219L25 33.5C25 37.09 22.09 40 18.5 40C14.91 40 12 37.09 12 33.5C12 33.33 12.009531 33.17 12.019531 33L3.2792969 28.519531C4.9692969 38.999531 14.05 47 25 47C37.15 47 47 37.15 47 25C47 12.85 37.15 3 25 3 z M 31.5 14C27.92 14 25 16.92 25 20.5C25 24.08 27.92 27 31.5 27C35.08 27 38 24.08 38 20.5C38 16.92 35.08 14 31.5 14 z M 31.5 16C33.99 16 36 18.01 36 20.5C36 22.99 33.99 25 31.5 25C29.01 25 27 22.99 27 20.5C27 18.01 29.01 16 31.5 16 z M 18.5 29C17.71 29 16.960313 29.200312 16.320312 29.570312L19.640625 31.269531C20.870625 31.899531 21.350469 33.410625 20.730469 34.640625C20.280469 35.500625 19.41 36 18.5 36C18.11 36 17.729375 35.910469 17.359375 35.730469L14.029297 34.019531C14.289297 36.259531 16.19 38 18.5 38C20.99 38 23 35.99 23 33.5C23 31.01 20.99 29 18.5 29 z" fill="#FFFFFF" />
</svg>