<svg width="220" height="200" viewBox="0 0 220 200" fill="none" xmlns="http://www.w3.org/2000/svg">
<g clip-path="url(#clip0_17_26)">
<path d="M27.6797 19.6455C30.9556 19.6455 33.6113 17.8864 33.6113 15.7165C33.6113 13.5465 30.9556 11.7874 27.6797 11.7874C24.4037 11.7874 21.748 13.5465 21.748 15.7165C21.748 17.8864 24.4037 19.6455 27.6797 19.6455Z" fill="white"/>
<path d="M0 28.3658V47.6808C0 101.26 0.142843 138.145 40.8526 169.354C56.5651 181.358 94.8464 201 94.8464 201V10.5786C54.9938 10.5786 15.1411 24.1101 0 28.3658Z" fill="#149E71"/>
<path d="M187.998 28.1476C169.367 23.6735 134.068 10.5786 94.8452 10.5786V201C94.8452 201 132.667 181.358 148.075 169.354C188.138 138.145 187.998 105.408 187.998 54.8831V28.1476Z" fill="#00B67A"/>
<path d="M188 27.7697V12.8421C188 7.46376 178.522 0 169.892 0H16.4093C7.92178 0 0 7.46376 0 12.8421V27.7697H188Z" fill="#E0E0E0"/>
<path d="M44.0352 19.8358C46.8413 19.8358 49.1162 18.0597 49.1162 15.8688C49.1162 13.6778 46.8413 11.9016 44.0352 11.9016C41.229 11.9016 38.9541 13.6778 38.9541 15.8688C38.9541 18.0597 41.229 19.8358 44.0352 19.8358Z" fill="white"/>
<mask id="mask0_17_26" style="mask-type:luminance" maskUnits="userSpaceOnUse" x="0" y="10" width="188" height="191">
<path d="M94.7472 10.5835C52.026 10.5835 14.9451 24.2024 0 28.3425V47.627C0 101.123 0.282051 137.949 40.4647 169.109C55.9737 181.093 93.619 200.704 93.619 200.704C93.619 200.704 131.687 181.093 147.196 169.109C187.52 137.949 187.378 105.263 187.378 54.8182V28.1247C168.627 23.6577 134.929 10.5835 94.7472 10.5835Z" fill="white"/>
</mask>
<g mask="url(#mask0_17_26)">
<path d="M195.415 28.3425H-7.33203V41.1988H195.415V28.3425Z" fill="url(#paint0_linear_17_26)"/>
</g>
<mask id="mask1_17_26" style="mask-type:luminance" maskUnits="userSpaceOnUse" x="43" y="19" width="102" height="143">
<path d="M94.2695 19.7546C67.9045 19.7546 43.231 34.0272 43.231 34.0272C43.231 34.0272 44.9229 63.5526 44.9229 75.4279C44.9229 101.031 51.2674 122.168 65.9307 137.966C74.2492 146.9 94.2695 161.499 94.2695 161.499C94.2695 161.499 113.727 146.9 122.045 137.966C136.709 122.168 142.63 101.031 142.63 75.4279C142.63 63.5526 144.604 34.0272 144.604 34.0272C144.604 34.0272 119.366 19.7546 94.2695 19.7546Z" fill="white"/>
</mask>
<g mask="url(#mask1_17_26)">
<path d="M94.9747 188.084C111.795 188.084 125.429 177.549 125.429 164.552C125.429 151.554 111.795 141.018 94.9747 141.018C78.1559 141.018 64.5205 151.554 64.5205 164.552C64.5205 177.549 78.1559 188.084 94.9747 188.084Z" fill="#FAFAFA"/>
<path d="M94.9742 205.407C66.0711 205.407 42.6665 187.322 42.6665 164.987C42.6665 142.652 66.0711 124.565 94.9742 124.565C123.878 124.565 147.283 142.652 147.283 164.987C147.283 187.322 123.878 205.407 94.9742 205.407ZM94.9742 132.519C71.7108 132.519 52.9589 147.009 52.9589 164.987C52.9589 182.963 71.7108 197.453 94.9742 197.453C118.238 197.453 136.991 182.963 136.991 164.987C136.991 147.118 118.238 132.519 94.9742 132.519Z" fill="#FAFAFA"/>
<path d="M94.9758 222.622C53.8062 222.622 20.3911 196.801 20.3911 164.986C20.3911 133.173 53.8062 107.352 94.9758 107.352C136.145 107.352 169.561 133.173 169.561 164.986C169.561 196.801 136.145 222.622 94.9758 222.622ZM94.9758 115.632C59.7278 115.632 31.1065 137.749 31.1065 164.986C31.1065 192.225 59.7278 214.342 94.9758 214.342C130.224 214.342 158.845 192.225 158.845 164.986C158.845 137.749 130.224 115.632 94.9758 115.632Z" fill="#FAFAFA"/>
<path d="M93.565 93.6234C110.617 93.6234 124.442 82.9407 124.442 69.7628C124.442 56.585 110.617 45.9028 93.565 45.9028C76.5114 45.9028 62.6875 56.585 62.6875 69.7628C62.6875 82.9407 76.5114 93.6234 93.565 93.6234Z" fill="#FAFAFA"/>
</g>
</g>
<defs>
<linearGradient id="paint0_linear_17_26" x1="94.1114" y1="26.3011" x2="94.1114" y2="36.9451" gradientUnits="userSpaceOnUse">
<stop stop-color="#263238" stop-opacity="0.35"/>
<stop offset="0.42" stop-color="#263238" stop-opacity="0.15"/>
<stop offset="0.89" stop-color="#263238" stop-opacity="0.02"/>
<stop offset="1" stop-color="#263238" stop-opacity="0"/>
</linearGradient>
<clipPath id="clip0_17_26">
<rect width="220" height="200" fill="white"/>
</clipPath>
</defs>
</svg>
