<svg width="767" height="300" viewBox="0 0 767 300" fill="none" xmlns="http://www.w3.org/2000/svg">
<mask id="mask0_16_20" style="mask-type:luminance" maskUnits="userSpaceOnUse" x="0" y="0" width="767" height="300">
<path d="M767 0H0V300H767V0Z" fill="white"/>
</mask>
<g mask="url(#mask0_16_20)">
<mask id="mask1_16_20" style="mask-type:luminance" maskUnits="userSpaceOnUse" x="0" y="0" width="767" height="300">
<path d="M767 0H0V300H767V0Z" fill="white"/>
</mask>
<g mask="url(#mask1_16_20)">
<path d="M57.1319 74C49.8963 74 43.9923 79.9106 43.1656 87.5071L113.659 135.2L184.153 87.5071C183.326 79.9106 177.422 74 170.186 74H57.1319ZM43 102.702V181.1C43 189.553 49.324 196.4 57.1319 196.4H117.758C125.276 177.581 141.81 168.594 156.055 166.368V150.5C156.055 146.277 159.22 142.85 163.121 142.85H173.112C174.985 142.85 176.787 143.653 178.108 145.091L184.319 151.815V102.702L113.659 150.5L43 102.702ZM170.186 158.15V181.1H163.121C163.121 181.1 154.58 180.995 145.828 185.732C137.077 190.469 127.791 201.5 127.791 219.35V227H141.923V219.35C141.923 206.6 146.769 202.331 152.149 199.418C157.529 196.505 163.121 196.4 163.121 196.4H170.186V219.35L198.45 188.75L170.186 158.15Z" fill="#00B67A"/>
<path d="M170.986 218.565L199 188.895L170.711 157.772V180.751L164.943 181.042L159.725 181.333L154.781 182.496L148.19 184.241L144.619 186.278L141.598 188.605L138.852 190.932L136.38 193.549L133.908 197.622L131.711 201.985L128.965 211.002L128.141 217.692V227H142.148V217.692L142.972 211.002L143.521 207.802L144.619 204.603L146.267 202.276L148.739 200.24L152.31 198.785L153.957 198.203L155.605 197.622L158.626 196.749L162.472 196.458H170.986V218.565Z" fill="white" stroke="#00B67A" stroke-width="2"/>
</g>
</g>
</svg>
