
<svg width="767" height="300" viewBox="0 0 767 300" fill="none" xmlns="http://www.w3.org/2000/svg"><g clip-path="url(#clip0_65_71)"><mask id="mask0_65_71" style="mask-type:luminance" maskUnits="userSpaceOnUse" x="0" y="0" width="767" height="300"><path d="M767 0H0V300H767V0Z" fill="white"></path></mask><g mask="url(#mask0_65_71)"><path d="M39.3613 75.3114V94.6324C39.3613 148.229 39.475 185.125 71.8782 216.344C84.3847 228.352 114.855 248 114.855 248V57.5186C83.134 57.5186 51.413 71.0543 39.3613 75.3114Z" fill="#149E71"></path><path d="M188.999 75.0931C174.17 70.6176 146.073 57.5186 114.854 57.5186V248C114.854 248 144.958 228.352 157.222 216.344C189.111 185.125 188.999 152.378 188.999 101.837V75.0931Z" fill="#00B67A"></path><path d="M189.001 74.7149V59.7826C189.001 54.4026 181.457 46.9365 174.588 46.9365H52.4224C45.6667 46.9365 39.3613 54.4026 39.3613 59.7826V74.7149H189.001Z" fill="#E0E0E0"></path><path d="M58.2338 66.7785C60.4674 66.7785 62.2781 65.0018 62.2781 62.8102C62.2781 60.6185 60.4674 58.8418 58.2338 58.8418C56.0002 58.8418 54.1895 60.6185 54.1895 62.8102C54.1895 65.0018 56.0002 66.7785 58.2338 66.7785Z" fill="white"></path><path d="M74.4115 66.7785C76.6451 66.7785 78.4558 65.0018 78.4558 62.8102C78.4558 60.6185 76.6451 58.8418 74.4115 58.8418C72.1779 58.8418 70.3672 60.6185 70.3672 62.8102C70.3672 65.0018 72.1779 66.7785 74.4115 66.7785Z" fill="white"></path><mask id="mask1_65_71" style="mask-type:luminance" maskUnits="userSpaceOnUse" x="39" y="57" width="150" height="191"><path d="M114.776 57.5234C80.7718 57.5234 51.257 71.1466 39.3613 75.288V94.5785C39.3613 148.091 39.5858 184.928 71.5695 216.098C83.914 228.086 113.878 247.703 113.878 247.703C113.878 247.703 144.178 228.086 156.523 216.098C188.619 184.928 188.506 152.232 188.506 101.772V75.0701C173.581 70.6017 146.759 57.5234 114.776 57.5234Z" fill="white"></path></mask><g mask="url(#mask1_65_71)"><path d="M194.903 75.2881H33.5254V88.1484H194.903V75.2881Z" fill="url(#paint0_linear_65_71)"></path></g><mask id="mask2_65_71" style="mask-type:luminance" maskUnits="userSpaceOnUse" x="73" y="66" width="82" height="143"><path d="M114.396 66.6973C93.4106 66.6973 73.7715 80.9743 73.7715 80.9743C73.7715 80.9743 75.1182 110.509 75.1182 122.388C75.1182 148 80.1682 169.143 91.8395 184.946C98.4607 193.883 114.396 208.487 114.396 208.487C114.396 208.487 129.883 193.883 136.504 184.946C148.176 169.143 152.889 148 152.889 122.388C152.889 110.509 154.46 80.9743 154.46 80.9743C154.46 80.9743 134.372 66.6973 114.396 66.6973Z" fill="white"></path></mask><g mask="url(#mask2_65_71)"><path d="M114.957 235.079C128.345 235.079 139.197 224.54 139.197 211.539C139.197 198.537 128.345 187.998 114.957 187.998C101.57 187.998 90.7168 198.537 90.7168 211.539C90.7168 224.54 101.57 235.079 114.957 235.079Z" fill="#FAFAFA"></path><path d="M114.957 252.408C91.9514 252.408 73.3223 234.317 73.3223 211.975C73.3223 189.633 91.9514 171.541 114.957 171.541C137.963 171.541 156.592 189.633 156.592 211.975C156.592 234.317 137.963 252.408 114.957 252.408ZM114.957 179.497C96.4403 179.497 81.5146 193.992 81.5146 211.975C81.5146 229.957 96.4403 244.452 114.957 244.452C133.474 244.452 148.4 229.957 148.4 211.975C148.4 194.101 133.474 179.497 114.957 179.497Z" fill="#FAFAFA"></path><path d="M114.958 269.628C82.1888 269.628 55.5918 243.798 55.5918 211.974C55.5918 180.151 82.1888 154.321 114.958 154.321C147.727 154.321 174.324 180.151 174.324 211.974C174.324 243.798 147.727 269.628 114.958 269.628ZM114.958 162.604C86.9021 162.604 64.1208 184.728 64.1208 211.974C64.1208 239.221 86.9021 261.345 114.958 261.345C143.014 261.345 165.795 239.221 165.795 211.974C165.795 184.728 143.014 162.604 114.958 162.604Z" fill="#FAFAFA"></path><path d="M113.835 140.589C127.408 140.589 138.412 129.903 138.412 116.721C138.412 103.539 127.408 92.8535 113.835 92.8535C100.261 92.8535 89.2578 103.539 89.2578 116.721C89.2578 129.903 100.261 140.589 113.835 140.589Z" fill="#FAFAFA"></path></g><path d="M309.383 121.25C303.914 124.401 297.117 125.977 288.992 125.977C279.982 125.977 272.872 123.49 267.664 118.516C262.482 113.516 259.891 106.641 259.891 97.8907C259.891 89.0886 262.729 81.9142 268.406 76.3673C274.083 70.8204 281.635 68.047 291.062 68.047C297 68.047 302.234 68.8673 306.766 70.5079V82.3439C302.443 79.8439 297.156 78.5939 290.906 78.5939C285.672 78.5939 281.401 80.2996 278.094 83.711C274.812 87.0965 273.172 91.6277 273.172 97.3048C273.172 103.06 274.643 107.513 277.586 110.664C280.555 113.815 284.552 115.391 289.578 115.391C292.599 115.391 294.995 114.961 296.766 114.102V103.164H285.555V93.086H309.383V121.25ZM338.133 125.977C331.466 125.977 326.219 124.115 322.391 120.391C318.589 116.641 316.688 111.562 316.688 105.156C316.688 98.5418 318.667 93.3725 322.625 89.6485C326.583 85.8985 331.935 84.0235 338.68 84.0235C345.32 84.0235 350.529 85.8985 354.305 89.6485C358.081 93.3725 359.969 98.3074 359.969 104.453C359.969 111.094 358.016 116.341 354.109 120.195C350.229 124.049 344.904 125.977 338.133 125.977ZM338.445 93.4767C335.529 93.4767 333.263 94.4793 331.648 96.4845C330.034 98.4897 329.227 101.328 329.227 105C329.227 112.682 332.326 116.523 338.523 116.523C344.435 116.523 347.391 112.578 347.391 104.688C347.391 97.2136 344.409 93.4767 338.445 93.4767ZM387.039 125.977C380.372 125.977 375.125 124.115 371.297 120.391C367.495 116.641 365.594 111.562 365.594 105.156C365.594 98.5418 367.573 93.3725 371.531 89.6485C375.49 85.8985 380.841 84.0235 387.586 84.0235C394.227 84.0235 399.435 85.8985 403.211 89.6485C406.987 93.3725 408.875 98.3074 408.875 104.453C408.875 111.094 406.922 116.341 403.016 120.195C399.135 124.049 393.81 125.977 387.039 125.977ZM387.352 93.4767C384.435 93.4767 382.169 94.4793 380.555 96.4845C378.94 98.4897 378.133 101.328 378.133 105C378.133 112.682 381.232 116.523 387.43 116.523C393.341 116.523 396.297 112.578 396.297 104.688C396.297 97.2136 393.315 93.4767 387.352 93.4767ZM456.102 120.43C456.102 127.852 453.953 133.594 449.656 137.656C445.359 141.745 439.135 143.789 430.984 143.789C425.594 143.789 421.323 143.021 418.172 141.484V131.094C422.286 133.49 426.44 134.688 430.633 134.688C434.799 134.688 438.029 133.581 440.32 131.367C442.612 129.18 443.758 126.198 443.758 122.422V119.258H443.602C440.789 123.737 436.635 125.977 431.141 125.977C426.036 125.977 421.987 124.18 418.992 120.586C415.997 116.992 414.5 112.174 414.5 106.133C414.5 99.3621 416.167 93.9845 419.5 90.0001C422.833 86.0157 427.221 84.0235 432.664 84.0235C437.534 84.0235 441.18 85.8985 443.602 89.6485H443.758V85.0001H456.102V120.43ZM443.914 105.781V102.617C443.914 100.091 443.159 97.9428 441.648 96.172C440.164 94.3751 438.224 93.4767 435.828 93.4767C433.094 93.4767 430.945 94.5444 429.383 96.6798C427.82 98.8152 427.039 101.823 427.039 105.703C427.039 109.036 427.781 111.68 429.266 113.633C430.75 115.56 432.781 116.523 435.359 116.523C437.911 116.523 439.969 115.547 441.531 113.594C443.12 111.615 443.914 109.01 443.914 105.781ZM478.758 125H466.414V65.7812H478.758V125ZM525.086 108.516H498.992C499.409 114.323 503.068 117.227 509.969 117.227C514.37 117.227 518.237 116.185 521.57 114.102V123.008C517.872 124.987 513.068 125.977 507.156 125.977C500.698 125.977 495.685 124.193 492.117 120.625C488.549 117.031 486.766 112.031 486.766 105.625C486.766 98.9845 488.693 93.7241 492.547 89.8439C496.401 85.9636 501.141 84.0235 506.766 84.0235C512.599 84.0235 517.104 85.7553 520.281 89.2189C523.484 92.6824 525.086 97.3829 525.086 103.32V108.516ZM513.641 100.938C513.641 95.2084 511.323 92.3439 506.688 92.3439C504.708 92.3439 502.99 93.1642 501.531 94.8048C500.099 96.4454 499.227 98.4897 498.914 100.938H513.641Z" fill="#787878"></path><path d="M309.383 121.25C303.914 124.401 297.117 125.977 288.992 125.977C279.982 125.977 272.872 123.49 267.664 118.516C262.482 113.516 259.891 106.641 259.891 97.8907C259.891 89.0886 262.729 81.9142 268.406 76.3673C274.083 70.8204 281.635 68.047 291.062 68.047C297 68.047 302.234 68.8673 306.766 70.5079V82.3439C302.443 79.8439 297.156 78.5939 290.906 78.5939C285.672 78.5939 281.401 80.2996 278.094 83.711C274.812 87.0965 273.172 91.6277 273.172 97.3048C273.172 103.06 274.643 107.513 277.586 110.664C280.555 113.815 284.552 115.391 289.578 115.391C292.599 115.391 294.995 114.961 296.766 114.102V103.164H285.555V93.086H309.383V121.25ZM338.133 125.977C331.466 125.977 326.219 124.115 322.391 120.391C318.589 116.641 316.688 111.562 316.688 105.156C316.688 98.5418 318.667 93.3725 322.625 89.6485C326.583 85.8985 331.935 84.0235 338.68 84.0235C345.32 84.0235 350.529 85.8985 354.305 89.6485C358.081 93.3725 359.969 98.3074 359.969 104.453C359.969 111.094 358.016 116.341 354.109 120.195C350.229 124.049 344.904 125.977 338.133 125.977ZM338.445 93.4767C335.529 93.4767 333.263 94.4793 331.648 96.4845C330.034 98.4897 329.227 101.328 329.227 105C329.227 112.682 332.326 116.523 338.523 116.523C344.435 116.523 347.391 112.578 347.391 104.688C347.391 97.2136 344.409 93.4767 338.445 93.4767ZM387.039 125.977C380.372 125.977 375.125 124.115 371.297 120.391C367.495 116.641 365.594 111.562 365.594 105.156C365.594 98.5418 367.573 93.3725 371.531 89.6485C375.49 85.8985 380.841 84.0235 387.586 84.0235C394.227 84.0235 399.435 85.8985 403.211 89.6485C406.987 93.3725 408.875 98.3074 408.875 104.453C408.875 111.094 406.922 116.341 403.016 120.195C399.135 124.049 393.81 125.977 387.039 125.977ZM387.352 93.4767C384.435 93.4767 382.169 94.4793 380.555 96.4845C378.94 98.4897 378.133 101.328 378.133 105C378.133 112.682 381.232 116.523 387.43 116.523C393.341 116.523 396.297 112.578 396.297 104.688C396.297 97.2136 393.315 93.4767 387.352 93.4767ZM456.102 120.43C456.102 127.852 453.953 133.594 449.656 137.656C445.359 141.745 439.135 143.789 430.984 143.789C425.594 143.789 421.323 143.021 418.172 141.484V131.094C422.286 133.49 426.44 134.688 430.633 134.688C434.799 134.688 438.029 133.581 440.32 131.367C442.612 129.18 443.758 126.198 443.758 122.422V119.258H443.602C440.789 123.737 436.635 125.977 431.141 125.977C426.036 125.977 421.987 124.18 418.992 120.586C415.997 116.992 414.5 112.174 414.5 106.133C414.5 99.3621 416.167 93.9845 419.5 90.0001C422.833 86.0157 427.221 84.0235 432.664 84.0235C437.534 84.0235 441.18 85.8985 443.602 89.6485H443.758V85.0001H456.102V120.43ZM443.914 105.781V102.617C443.914 100.091 443.159 97.9428 441.648 96.172C440.164 94.3751 438.224 93.4767 435.828 93.4767C433.094 93.4767 430.945 94.5444 429.383 96.6798C427.82 98.8152 427.039 101.823 427.039 105.703C427.039 109.036 427.781 111.68 429.266 113.633C430.75 115.56 432.781 116.523 435.359 116.523C437.911 116.523 439.969 115.547 441.531 113.594C443.12 111.615 443.914 109.01 443.914 105.781ZM478.758 125H466.414V65.7812H478.758V125ZM525.086 108.516H498.992C499.409 114.323 503.068 117.227 509.969 117.227C514.37 117.227 518.237 116.185 521.57 114.102V123.008C517.872 124.987 513.068 125.977 507.156 125.977C500.698 125.977 495.685 124.193 492.117 120.625C488.549 117.031 486.766 112.031 486.766 105.625C486.766 98.9845 488.693 93.7241 492.547 89.8439C496.401 85.9636 501.141 84.0235 506.766 84.0235C512.599 84.0235 517.104 85.7553 520.281 89.2189C523.484 92.6824 525.086 97.3829 525.086 103.32V108.516ZM513.641 100.938C513.641 95.2084 511.323 92.3439 506.688 92.3439C504.708 92.3439 502.99 93.1642 501.531 94.8048C500.099 96.4454 499.227 98.4897 498.914 100.938H513.641Z" fill="#787878"></path><path d="M309.383 121.25C303.914 124.401 297.117 125.977 288.992 125.977C279.982 125.977 272.872 123.49 267.664 118.516C262.482 113.516 259.891 106.641 259.891 97.8907C259.891 89.0886 262.729 81.9142 268.406 76.3673C274.083 70.8204 281.635 68.047 291.062 68.047C297 68.047 302.234 68.8673 306.766 70.5079V82.3439C302.443 79.8439 297.156 78.5939 290.906 78.5939C285.672 78.5939 281.401 80.2996 278.094 83.711C274.812 87.0965 273.172 91.6277 273.172 97.3048C273.172 103.06 274.643 107.513 277.586 110.664C280.555 113.815 284.552 115.391 289.578 115.391C292.599 115.391 294.995 114.961 296.766 114.102V103.164H285.555V93.086H309.383V121.25ZM338.133 125.977C331.466 125.977 326.219 124.115 322.391 120.391C318.589 116.641 316.688 111.562 316.688 105.156C316.688 98.5418 318.667 93.3725 322.625 89.6485C326.583 85.8985 331.935 84.0235 338.68 84.0235C345.32 84.0235 350.529 85.8985 354.305 89.6485C358.081 93.3725 359.969 98.3074 359.969 104.453C359.969 111.094 358.016 116.341 354.109 120.195C350.229 124.049 344.904 125.977 338.133 125.977ZM338.445 93.4767C335.529 93.4767 333.263 94.4793 331.648 96.4845C330.034 98.4897 329.227 101.328 329.227 105C329.227 112.682 332.326 116.523 338.523 116.523C344.435 116.523 347.391 112.578 347.391 104.688C347.391 97.2136 344.409 93.4767 338.445 93.4767ZM387.039 125.977C380.372 125.977 375.125 124.115 371.297 120.391C367.495 116.641 365.594 111.562 365.594 105.156C365.594 98.5418 367.573 93.3725 371.531 89.6485C375.49 85.8985 380.841 84.0235 387.586 84.0235C394.227 84.0235 399.435 85.8985 403.211 89.6485C406.987 93.3725 408.875 98.3074 408.875 104.453C408.875 111.094 406.922 116.341 403.016 120.195C399.135 124.049 393.81 125.977 387.039 125.977ZM387.352 93.4767C384.435 93.4767 382.169 94.4793 380.555 96.4845C378.94 98.4897 378.133 101.328 378.133 105C378.133 112.682 381.232 116.523 387.43 116.523C393.341 116.523 396.297 112.578 396.297 104.688C396.297 97.2136 393.315 93.4767 387.352 93.4767ZM456.102 120.43C456.102 127.852 453.953 133.594 449.656 137.656C445.359 141.745 439.135 143.789 430.984 143.789C425.594 143.789 421.323 143.021 418.172 141.484V131.094C422.286 133.49 426.44 134.688 430.633 134.688C434.799 134.688 438.029 133.581 440.32 131.367C442.612 129.18 443.758 126.198 443.758 122.422V119.258H443.602C440.789 123.737 436.635 125.977 431.141 125.977C426.036 125.977 421.987 124.18 418.992 120.586C415.997 116.992 414.5 112.174 414.5 106.133C414.5 99.3621 416.167 93.9845 419.5 90.0001C422.833 86.0157 427.221 84.0235 432.664 84.0235C437.534 84.0235 441.18 85.8985 443.602 89.6485H443.758V85.0001H456.102V120.43ZM443.914 105.781V102.617C443.914 100.091 443.159 97.9428 441.648 96.172C440.164 94.3751 438.224 93.4767 435.828 93.4767C433.094 93.4767 430.945 94.5444 429.383 96.6798C427.82 98.8152 427.039 101.823 427.039 105.703C427.039 109.036 427.781 111.68 429.266 113.633C430.75 115.56 432.781 116.523 435.359 116.523C437.911 116.523 439.969 115.547 441.531 113.594C443.12 111.615 443.914 109.01 443.914 105.781ZM478.758 125H466.414V65.7812H478.758V125ZM525.086 108.516H498.992C499.409 114.323 503.068 117.227 509.969 117.227C514.37 117.227 518.237 116.185 521.57 114.102V123.008C517.872 124.987 513.068 125.977 507.156 125.977C500.698 125.977 495.685 124.193 492.117 120.625C488.549 117.031 486.766 112.031 486.766 105.625C486.766 98.9845 488.693 93.7241 492.547 89.8439C496.401 85.9636 501.141 84.0235 506.766 84.0235C512.599 84.0235 517.104 85.7553 520.281 89.2189C523.484 92.6824 525.086 97.3829 525.086 103.32V108.516ZM513.641 100.938C513.641 95.2084 511.323 92.3439 506.688 92.3439C504.708 92.3439 502.99 93.1642 501.531 94.8048C500.099 96.4454 499.227 98.4897 498.914 100.938H513.641Z" fill="white"></path><path d="M283.836 210.441H267.43V224.973H282.605V229.396H267.43V248H262.508V205.988H283.836V210.441ZM312.635 248H307.83V243.312H307.713C305.623 246.906 302.547 248.703 298.484 248.703C295.496 248.703 293.152 247.912 291.453 246.33C289.773 244.748 288.934 242.648 288.934 240.031C288.934 234.426 292.234 231.164 298.836 230.246L307.83 228.986C307.83 223.889 305.77 221.34 301.648 221.34C298.035 221.34 294.773 222.57 291.863 225.031V220.109C294.812 218.234 298.211 217.297 302.059 217.297C309.109 217.297 312.635 221.027 312.635 228.488V248ZM307.83 232.824L300.594 233.82C298.367 234.133 296.688 234.689 295.555 235.49C294.422 236.271 293.855 237.668 293.855 239.68C293.855 241.145 294.373 242.346 295.408 243.283C296.463 244.201 297.859 244.66 299.598 244.66C301.98 244.66 303.943 243.83 305.486 242.17C307.049 240.49 307.83 238.371 307.83 235.812V232.824ZM319.871 246.916V241.76C322.488 243.693 325.369 244.66 328.514 244.66C332.732 244.66 334.842 243.254 334.842 240.441C334.842 239.641 334.656 238.967 334.285 238.42C333.934 237.854 333.445 237.355 332.82 236.926C332.215 236.496 331.492 236.115 330.652 235.783C329.832 235.432 328.943 235.07 327.986 234.699C326.658 234.172 325.486 233.645 324.471 233.117C323.475 232.57 322.635 231.965 321.951 231.301C321.287 230.617 320.779 229.846 320.428 228.986C320.096 228.127 319.93 227.121 319.93 225.969C319.93 224.562 320.252 223.322 320.896 222.248C321.541 221.154 322.4 220.246 323.475 219.523C324.549 218.781 325.77 218.225 327.137 217.854C328.523 217.482 329.949 217.297 331.414 217.297C334.012 217.297 336.336 217.746 338.387 218.645V223.508C336.18 222.062 333.641 221.34 330.77 221.34C329.871 221.34 329.061 221.447 328.338 221.662C327.615 221.857 326.99 222.141 326.463 222.512C325.955 222.883 325.555 223.332 325.262 223.859C324.988 224.367 324.852 224.934 324.852 225.559C324.852 226.34 324.988 226.994 325.262 227.521C325.555 228.049 325.975 228.518 326.521 228.928C327.068 229.338 327.732 229.709 328.514 230.041C329.295 230.373 330.184 230.734 331.18 231.125C332.508 231.633 333.699 232.16 334.754 232.707C335.809 233.234 336.707 233.84 337.449 234.523C338.191 235.188 338.758 235.959 339.148 236.838C339.559 237.717 339.764 238.762 339.764 239.973C339.764 241.457 339.432 242.746 338.768 243.84C338.123 244.934 337.254 245.842 336.16 246.564C335.066 247.287 333.807 247.824 332.381 248.176C330.955 248.527 329.461 248.703 327.898 248.703C324.812 248.703 322.137 248.107 319.871 246.916ZM371.287 234.201H350.105C350.184 237.541 351.082 240.119 352.801 241.936C354.52 243.752 356.883 244.66 359.891 244.66C363.27 244.66 366.375 243.547 369.207 241.32V245.832C366.57 247.746 363.084 248.703 358.748 248.703C354.51 248.703 351.18 247.346 348.758 244.631C346.336 241.896 345.125 238.059 345.125 233.117C345.125 228.449 346.443 224.65 349.08 221.721C351.736 218.771 355.027 217.297 358.953 217.297C362.879 217.297 365.916 218.566 368.064 221.105C370.213 223.645 371.287 227.17 371.287 231.682V234.201ZM366.365 230.129C366.346 227.355 365.672 225.197 364.344 223.654C363.035 222.111 361.209 221.34 358.865 221.34C356.6 221.34 354.676 222.15 353.094 223.771C351.512 225.393 350.535 227.512 350.164 230.129H366.365ZM395.691 248V205.988H407.645C411.277 205.988 414.158 206.877 416.287 208.654C418.416 210.432 419.48 212.746 419.48 215.598C419.48 217.98 418.836 220.051 417.547 221.809C416.258 223.566 414.48 224.816 412.215 225.559V225.676C415.047 226.008 417.312 227.082 419.012 228.898C420.711 230.695 421.561 233.039 421.561 235.93C421.561 239.523 420.271 242.434 417.693 244.66C415.115 246.887 411.863 248 407.938 248H395.691ZM400.613 210.441V224.006H405.652C408.348 224.006 410.467 223.361 412.01 222.072C413.553 220.764 414.324 218.928 414.324 216.564C414.324 212.482 411.639 210.441 406.268 210.441H400.613ZM400.613 228.43V243.547H407.293C410.184 243.547 412.42 242.863 414.002 241.496C415.604 240.129 416.404 238.254 416.404 235.871C416.404 230.91 413.025 228.43 406.268 228.43H400.613ZM445.086 222.863C444.246 222.219 443.035 221.896 441.453 221.896C439.402 221.896 437.684 222.863 436.297 224.797C434.93 226.73 434.246 229.367 434.246 232.707V248H429.441V218H434.246V224.182H434.363C435.047 222.072 436.092 220.432 437.498 219.26C438.904 218.068 440.477 217.473 442.215 217.473C443.465 217.473 444.422 217.609 445.086 217.883V222.863ZM462.84 248.703C458.406 248.703 454.861 247.307 452.205 244.514C449.568 241.701 448.25 237.98 448.25 233.352C448.25 228.312 449.627 224.377 452.381 221.545C455.135 218.713 458.855 217.297 463.543 217.297C468.016 217.297 471.502 218.674 474.002 221.428C476.521 224.182 477.781 228 477.781 232.883C477.781 237.668 476.424 241.506 473.709 244.396C471.014 247.268 467.391 248.703 462.84 248.703ZM463.191 221.34C460.105 221.34 457.664 222.395 455.867 224.504C454.07 226.594 453.172 229.484 453.172 233.176C453.172 236.73 454.08 239.533 455.896 241.584C457.713 243.635 460.145 244.66 463.191 244.66C466.297 244.66 468.68 243.654 470.34 241.643C472.02 239.631 472.859 236.77 472.859 233.059C472.859 229.309 472.02 226.418 470.34 224.387C468.68 222.355 466.297 221.34 463.191 221.34ZM523.25 218L514.256 248H509.275L503.094 226.525C502.859 225.705 502.703 224.777 502.625 223.742H502.508C502.449 224.445 502.244 225.354 501.893 226.467L495.184 248H490.379L481.297 218H486.336L492.547 240.559C492.742 241.242 492.879 242.141 492.957 243.254H493.191C493.25 242.395 493.426 241.477 493.719 240.5L500.633 218H505.027L511.238 240.617C511.434 241.34 511.58 242.238 511.678 243.312H511.912C511.951 242.551 512.117 241.652 512.41 240.617L518.504 218H523.25ZM527 246.916V241.76C529.617 243.693 532.498 244.66 535.643 244.66C539.861 244.66 541.971 243.254 541.971 240.441C541.971 239.641 541.785 238.967 541.414 238.42C541.062 237.854 540.574 237.355 539.949 236.926C539.344 236.496 538.621 236.115 537.781 235.783C536.961 235.432 536.072 235.07 535.115 234.699C533.787 234.172 532.615 233.645 531.6 233.117C530.604 232.57 529.764 231.965 529.08 231.301C528.416 230.617 527.908 229.846 527.557 228.986C527.225 228.127 527.059 227.121 527.059 225.969C527.059 224.562 527.381 223.322 528.025 222.248C528.67 221.154 529.529 220.246 530.604 219.523C531.678 218.781 532.898 218.225 534.266 217.854C535.652 217.482 537.078 217.297 538.543 217.297C541.141 217.297 543.465 217.746 545.516 218.645V223.508C543.309 222.062 540.77 221.34 537.898 221.34C537 221.34 536.189 221.447 535.467 221.662C534.744 221.857 534.119 222.141 533.592 222.512C533.084 222.883 532.684 223.332 532.391 223.859C532.117 224.367 531.98 224.934 531.98 225.559C531.98 226.34 532.117 226.994 532.391 227.521C532.684 228.049 533.104 228.518 533.65 228.928C534.197 229.338 534.861 229.709 535.643 230.041C536.424 230.373 537.312 230.734 538.309 231.125C539.637 231.633 540.828 232.16 541.883 232.707C542.938 233.234 543.836 233.84 544.578 234.523C545.32 235.188 545.887 235.959 546.277 236.838C546.688 237.717 546.893 238.762 546.893 239.973C546.893 241.457 546.561 242.746 545.896 243.84C545.252 244.934 544.383 245.842 543.289 246.564C542.195 247.287 540.936 247.824 539.51 248.176C538.084 248.527 536.59 248.703 535.027 248.703C531.941 248.703 529.266 248.107 527 246.916ZM556.766 210.383C555.906 210.383 555.174 210.09 554.568 209.504C553.963 208.918 553.66 208.176 553.66 207.277C553.66 206.379 553.963 205.637 554.568 205.051C555.174 204.445 555.906 204.143 556.766 204.143C557.645 204.143 558.387 204.445 558.992 205.051C559.617 205.637 559.93 206.379 559.93 207.277C559.93 208.137 559.617 208.869 558.992 209.475C558.387 210.08 557.645 210.383 556.766 210.383ZM559.109 248H554.305V218H559.109V248ZM593.738 248H588.934V230.891C588.934 224.523 586.609 221.34 581.961 221.34C579.559 221.34 577.566 222.248 575.984 224.064C574.422 225.861 573.641 228.137 573.641 230.891V248H568.836V218H573.641V222.98H573.758C576.023 219.191 579.305 217.297 583.602 217.297C586.883 217.297 589.393 218.361 591.131 220.49C592.869 222.6 593.738 225.656 593.738 229.66V248ZM628.426 245.598C628.426 256.613 623.152 262.121 612.605 262.121C608.895 262.121 605.652 261.418 602.879 260.012V255.207C606.258 257.082 609.48 258.02 612.547 258.02C619.93 258.02 623.621 254.094 623.621 246.242V242.961H623.504C621.219 246.789 617.781 248.703 613.191 248.703C609.461 248.703 606.453 247.375 604.168 244.719C601.902 242.043 600.77 238.459 600.77 233.967C600.77 228.869 601.99 224.816 604.432 221.809C606.893 218.801 610.252 217.297 614.51 217.297C618.553 217.297 621.551 218.918 623.504 222.16H623.621V218H628.426V245.598ZM623.621 234.436V230.012C623.621 227.629 622.811 225.588 621.189 223.889C619.588 222.189 617.586 221.34 615.184 221.34C612.215 221.34 609.891 222.424 608.211 224.592C606.531 226.74 605.691 229.758 605.691 233.645C605.691 236.984 606.492 239.66 608.094 241.672C609.715 243.664 611.854 244.66 614.51 244.66C617.205 244.66 619.393 243.703 621.072 241.789C622.771 239.875 623.621 237.424 623.621 234.436Z" fill="#787878"></path><path d="M283.836 210.441H267.43V224.973H282.605V229.396H267.43V248H262.508V205.988H283.836V210.441ZM312.635 248H307.83V243.312H307.713C305.623 246.906 302.547 248.703 298.484 248.703C295.496 248.703 293.152 247.912 291.453 246.33C289.773 244.748 288.934 242.648 288.934 240.031C288.934 234.426 292.234 231.164 298.836 230.246L307.83 228.986C307.83 223.889 305.77 221.34 301.648 221.34C298.035 221.34 294.773 222.57 291.863 225.031V220.109C294.812 218.234 298.211 217.297 302.059 217.297C309.109 217.297 312.635 221.027 312.635 228.488V248ZM307.83 232.824L300.594 233.82C298.367 234.133 296.688 234.689 295.555 235.49C294.422 236.271 293.855 237.668 293.855 239.68C293.855 241.145 294.373 242.346 295.408 243.283C296.463 244.201 297.859 244.66 299.598 244.66C301.98 244.66 303.943 243.83 305.486 242.17C307.049 240.49 307.83 238.371 307.83 235.812V232.824ZM319.871 246.916V241.76C322.488 243.693 325.369 244.66 328.514 244.66C332.732 244.66 334.842 243.254 334.842 240.441C334.842 239.641 334.656 238.967 334.285 238.42C333.934 237.854 333.445 237.355 332.82 236.926C332.215 236.496 331.492 236.115 330.652 235.783C329.832 235.432 328.943 235.07 327.986 234.699C326.658 234.172 325.486 233.645 324.471 233.117C323.475 232.57 322.635 231.965 321.951 231.301C321.287 230.617 320.779 229.846 320.428 228.986C320.096 228.127 319.93 227.121 319.93 225.969C319.93 224.562 320.252 223.322 320.896 222.248C321.541 221.154 322.4 220.246 323.475 219.523C324.549 218.781 325.77 218.225 327.137 217.854C328.523 217.482 329.949 217.297 331.414 217.297C334.012 217.297 336.336 217.746 338.387 218.645V223.508C336.18 222.062 333.641 221.34 330.77 221.34C329.871 221.34 329.061 221.447 328.338 221.662C327.615 221.857 326.99 222.141 326.463 222.512C325.955 222.883 325.555 223.332 325.262 223.859C324.988 224.367 324.852 224.934 324.852 225.559C324.852 226.34 324.988 226.994 325.262 227.521C325.555 228.049 325.975 228.518 326.521 228.928C327.068 229.338 327.732 229.709 328.514 230.041C329.295 230.373 330.184 230.734 331.18 231.125C332.508 231.633 333.699 232.16 334.754 232.707C335.809 233.234 336.707 233.84 337.449 234.523C338.191 235.188 338.758 235.959 339.148 236.838C339.559 237.717 339.764 238.762 339.764 239.973C339.764 241.457 339.432 242.746 338.768 243.84C338.123 244.934 337.254 245.842 336.16 246.564C335.066 247.287 333.807 247.824 332.381 248.176C330.955 248.527 329.461 248.703 327.898 248.703C324.812 248.703 322.137 248.107 319.871 246.916ZM371.287 234.201H350.105C350.184 237.541 351.082 240.119 352.801 241.936C354.52 243.752 356.883 244.66 359.891 244.66C363.27 244.66 366.375 243.547 369.207 241.32V245.832C366.57 247.746 363.084 248.703 358.748 248.703C354.51 248.703 351.18 247.346 348.758 244.631C346.336 241.896 345.125 238.059 345.125 233.117C345.125 228.449 346.443 224.65 349.08 221.721C351.736 218.771 355.027 217.297 358.953 217.297C362.879 217.297 365.916 218.566 368.064 221.105C370.213 223.645 371.287 227.17 371.287 231.682V234.201ZM366.365 230.129C366.346 227.355 365.672 225.197 364.344 223.654C363.035 222.111 361.209 221.34 358.865 221.34C356.6 221.34 354.676 222.15 353.094 223.771C351.512 225.393 350.535 227.512 350.164 230.129H366.365ZM395.691 248V205.988H407.645C411.277 205.988 414.158 206.877 416.287 208.654C418.416 210.432 419.48 212.746 419.48 215.598C419.48 217.98 418.836 220.051 417.547 221.809C416.258 223.566 414.48 224.816 412.215 225.559V225.676C415.047 226.008 417.312 227.082 419.012 228.898C420.711 230.695 421.561 233.039 421.561 235.93C421.561 239.523 420.271 242.434 417.693 244.66C415.115 246.887 411.863 248 407.938 248H395.691ZM400.613 210.441V224.006H405.652C408.348 224.006 410.467 223.361 412.01 222.072C413.553 220.764 414.324 218.928 414.324 216.564C414.324 212.482 411.639 210.441 406.268 210.441H400.613ZM400.613 228.43V243.547H407.293C410.184 243.547 412.42 242.863 414.002 241.496C415.604 240.129 416.404 238.254 416.404 235.871C416.404 230.91 413.025 228.43 406.268 228.43H400.613ZM445.086 222.863C444.246 222.219 443.035 221.896 441.453 221.896C439.402 221.896 437.684 222.863 436.297 224.797C434.93 226.73 434.246 229.367 434.246 232.707V248H429.441V218H434.246V224.182H434.363C435.047 222.072 436.092 220.432 437.498 219.26C438.904 218.068 440.477 217.473 442.215 217.473C443.465 217.473 444.422 217.609 445.086 217.883V222.863ZM462.84 248.703C458.406 248.703 454.861 247.307 452.205 244.514C449.568 241.701 448.25 237.98 448.25 233.352C448.25 228.312 449.627 224.377 452.381 221.545C455.135 218.713 458.855 217.297 463.543 217.297C468.016 217.297 471.502 218.674 474.002 221.428C476.521 224.182 477.781 228 477.781 232.883C477.781 237.668 476.424 241.506 473.709 244.396C471.014 247.268 467.391 248.703 462.84 248.703ZM463.191 221.34C460.105 221.34 457.664 222.395 455.867 224.504C454.07 226.594 453.172 229.484 453.172 233.176C453.172 236.73 454.08 239.533 455.896 241.584C457.713 243.635 460.145 244.66 463.191 244.66C466.297 244.66 468.68 243.654 470.34 241.643C472.02 239.631 472.859 236.77 472.859 233.059C472.859 229.309 472.02 226.418 470.34 224.387C468.68 222.355 466.297 221.34 463.191 221.34ZM523.25 218L514.256 248H509.275L503.094 226.525C502.859 225.705 502.703 224.777 502.625 223.742H502.508C502.449 224.445 502.244 225.354 501.893 226.467L495.184 248H490.379L481.297 218H486.336L492.547 240.559C492.742 241.242 492.879 242.141 492.957 243.254H493.191C493.25 242.395 493.426 241.477 493.719 240.5L500.633 218H505.027L511.238 240.617C511.434 241.34 511.58 242.238 511.678 243.312H511.912C511.951 242.551 512.117 241.652 512.41 240.617L518.504 218H523.25ZM527 246.916V241.76C529.617 243.693 532.498 244.66 535.643 244.66C539.861 244.66 541.971 243.254 541.971 240.441C541.971 239.641 541.785 238.967 541.414 238.42C541.062 237.854 540.574 237.355 539.949 236.926C539.344 236.496 538.621 236.115 537.781 235.783C536.961 235.432 536.072 235.07 535.115 234.699C533.787 234.172 532.615 233.645 531.6 233.117C530.604 232.57 529.764 231.965 529.08 231.301C528.416 230.617 527.908 229.846 527.557 228.986C527.225 228.127 527.059 227.121 527.059 225.969C527.059 224.562 527.381 223.322 528.025 222.248C528.67 221.154 529.529 220.246 530.604 219.523C531.678 218.781 532.898 218.225 534.266 217.854C535.652 217.482 537.078 217.297 538.543 217.297C541.141 217.297 543.465 217.746 545.516 218.645V223.508C543.309 222.062 540.77 221.34 537.898 221.34C537 221.34 536.189 221.447 535.467 221.662C534.744 221.857 534.119 222.141 533.592 222.512C533.084 222.883 532.684 223.332 532.391 223.859C532.117 224.367 531.98 224.934 531.98 225.559C531.98 226.34 532.117 226.994 532.391 227.521C532.684 228.049 533.104 228.518 533.65 228.928C534.197 229.338 534.861 229.709 535.643 230.041C536.424 230.373 537.312 230.734 538.309 231.125C539.637 231.633 540.828 232.16 541.883 232.707C542.938 233.234 543.836 233.84 544.578 234.523C545.32 235.188 545.887 235.959 546.277 236.838C546.688 237.717 546.893 238.762 546.893 239.973C546.893 241.457 546.561 242.746 545.896 243.84C545.252 244.934 544.383 245.842 543.289 246.564C542.195 247.287 540.936 247.824 539.51 248.176C538.084 248.527 536.59 248.703 535.027 248.703C531.941 248.703 529.266 248.107 527 246.916ZM556.766 210.383C555.906 210.383 555.174 210.09 554.568 209.504C553.963 208.918 553.66 208.176 553.66 207.277C553.66 206.379 553.963 205.637 554.568 205.051C555.174 204.445 555.906 204.143 556.766 204.143C557.645 204.143 558.387 204.445 558.992 205.051C559.617 205.637 559.93 206.379 559.93 207.277C559.93 208.137 559.617 208.869 558.992 209.475C558.387 210.08 557.645 210.383 556.766 210.383ZM559.109 248H554.305V218H559.109V248ZM593.738 248H588.934V230.891C588.934 224.523 586.609 221.34 581.961 221.34C579.559 221.34 577.566 222.248 575.984 224.064C574.422 225.861 573.641 228.137 573.641 230.891V248H568.836V218H573.641V222.98H573.758C576.023 219.191 579.305 217.297 583.602 217.297C586.883 217.297 589.393 218.361 591.131 220.49C592.869 222.6 593.738 225.656 593.738 229.66V248ZM628.426 245.598C628.426 256.613 623.152 262.121 612.605 262.121C608.895 262.121 605.652 261.418 602.879 260.012V255.207C606.258 257.082 609.48 258.02 612.547 258.02C619.93 258.02 623.621 254.094 623.621 246.242V242.961H623.504C621.219 246.789 617.781 248.703 613.191 248.703C609.461 248.703 606.453 247.375 604.168 244.719C601.902 242.043 600.77 238.459 600.77 233.967C600.77 228.869 601.99 224.816 604.432 221.809C606.893 218.801 610.252 217.297 614.51 217.297C618.553 217.297 621.551 218.918 623.504 222.16H623.621V218H628.426V245.598ZM623.621 234.436V230.012C623.621 227.629 622.811 225.588 621.189 223.889C619.588 222.189 617.586 221.34 615.184 221.34C612.215 221.34 609.891 222.424 608.211 224.592C606.531 226.74 605.691 229.758 605.691 233.645C605.691 236.984 606.492 239.66 608.094 241.672C609.715 243.664 611.854 244.66 614.51 244.66C617.205 244.66 619.393 243.703 621.072 241.789C622.771 239.875 623.621 237.424 623.621 234.436Z" fill="#787878"></path><path d="M283.836 210.441H267.43V224.973H282.605V229.396H267.43V248H262.508V205.988H283.836V210.441ZM312.635 248H307.83V243.312H307.713C305.623 246.906 302.547 248.703 298.484 248.703C295.496 248.703 293.152 247.912 291.453 246.33C289.773 244.748 288.934 242.648 288.934 240.031C288.934 234.426 292.234 231.164 298.836 230.246L307.83 228.986C307.83 223.889 305.77 221.34 301.648 221.34C298.035 221.34 294.773 222.57 291.863 225.031V220.109C294.812 218.234 298.211 217.297 302.059 217.297C309.109 217.297 312.635 221.027 312.635 228.488V248ZM307.83 232.824L300.594 233.82C298.367 234.133 296.688 234.689 295.555 235.49C294.422 236.271 293.855 237.668 293.855 239.68C293.855 241.145 294.373 242.346 295.408 243.283C296.463 244.201 297.859 244.66 299.598 244.66C301.98 244.66 303.943 243.83 305.486 242.17C307.049 240.49 307.83 238.371 307.83 235.812V232.824ZM319.871 246.916V241.76C322.488 243.693 325.369 244.66 328.514 244.66C332.732 244.66 334.842 243.254 334.842 240.441C334.842 239.641 334.656 238.967 334.285 238.42C333.934 237.854 333.445 237.355 332.82 236.926C332.215 236.496 331.492 236.115 330.652 235.783C329.832 235.432 328.943 235.07 327.986 234.699C326.658 234.172 325.486 233.645 324.471 233.117C323.475 232.57 322.635 231.965 321.951 231.301C321.287 230.617 320.779 229.846 320.428 228.986C320.096 228.127 319.93 227.121 319.93 225.969C319.93 224.562 320.252 223.322 320.896 222.248C321.541 221.154 322.4 220.246 323.475 219.523C324.549 218.781 325.77 218.225 327.137 217.854C328.523 217.482 329.949 217.297 331.414 217.297C334.012 217.297 336.336 217.746 338.387 218.645V223.508C336.18 222.062 333.641 221.34 330.77 221.34C329.871 221.34 329.061 221.447 328.338 221.662C327.615 221.857 326.99 222.141 326.463 222.512C325.955 222.883 325.555 223.332 325.262 223.859C324.988 224.367 324.852 224.934 324.852 225.559C324.852 226.34 324.988 226.994 325.262 227.521C325.555 228.049 325.975 228.518 326.521 228.928C327.068 229.338 327.732 229.709 328.514 230.041C329.295 230.373 330.184 230.734 331.18 231.125C332.508 231.633 333.699 232.16 334.754 232.707C335.809 233.234 336.707 233.84 337.449 234.523C338.191 235.188 338.758 235.959 339.148 236.838C339.559 237.717 339.764 238.762 339.764 239.973C339.764 241.457 339.432 242.746 338.768 243.84C338.123 244.934 337.254 245.842 336.16 246.564C335.066 247.287 333.807 247.824 332.381 248.176C330.955 248.527 329.461 248.703 327.898 248.703C324.812 248.703 322.137 248.107 319.871 246.916ZM371.287 234.201H350.105C350.184 237.541 351.082 240.119 352.801 241.936C354.52 243.752 356.883 244.66 359.891 244.66C363.27 244.66 366.375 243.547 369.207 241.32V245.832C366.57 247.746 363.084 248.703 358.748 248.703C354.51 248.703 351.18 247.346 348.758 244.631C346.336 241.896 345.125 238.059 345.125 233.117C345.125 228.449 346.443 224.65 349.08 221.721C351.736 218.771 355.027 217.297 358.953 217.297C362.879 217.297 365.916 218.566 368.064 221.105C370.213 223.645 371.287 227.17 371.287 231.682V234.201ZM366.365 230.129C366.346 227.355 365.672 225.197 364.344 223.654C363.035 222.111 361.209 221.34 358.865 221.34C356.6 221.34 354.676 222.15 353.094 223.771C351.512 225.393 350.535 227.512 350.164 230.129H366.365ZM395.691 248V205.988H407.645C411.277 205.988 414.158 206.877 416.287 208.654C418.416 210.432 419.48 212.746 419.48 215.598C419.48 217.98 418.836 220.051 417.547 221.809C416.258 223.566 414.48 224.816 412.215 225.559V225.676C415.047 226.008 417.312 227.082 419.012 228.898C420.711 230.695 421.561 233.039 421.561 235.93C421.561 239.523 420.271 242.434 417.693 244.66C415.115 246.887 411.863 248 407.938 248H395.691ZM400.613 210.441V224.006H405.652C408.348 224.006 410.467 223.361 412.01 222.072C413.553 220.764 414.324 218.928 414.324 216.564C414.324 212.482 411.639 210.441 406.268 210.441H400.613ZM400.613 228.43V243.547H407.293C410.184 243.547 412.42 242.863 414.002 241.496C415.604 240.129 416.404 238.254 416.404 235.871C416.404 230.91 413.025 228.43 406.268 228.43H400.613ZM445.086 222.863C444.246 222.219 443.035 221.896 441.453 221.896C439.402 221.896 437.684 222.863 436.297 224.797C434.93 226.73 434.246 229.367 434.246 232.707V248H429.441V218H434.246V224.182H434.363C435.047 222.072 436.092 220.432 437.498 219.26C438.904 218.068 440.477 217.473 442.215 217.473C443.465 217.473 444.422 217.609 445.086 217.883V222.863ZM462.84 248.703C458.406 248.703 454.861 247.307 452.205 244.514C449.568 241.701 448.25 237.98 448.25 233.352C448.25 228.312 449.627 224.377 452.381 221.545C455.135 218.713 458.855 217.297 463.543 217.297C468.016 217.297 471.502 218.674 474.002 221.428C476.521 224.182 477.781 228 477.781 232.883C477.781 237.668 476.424 241.506 473.709 244.396C471.014 247.268 467.391 248.703 462.84 248.703ZM463.191 221.34C460.105 221.34 457.664 222.395 455.867 224.504C454.07 226.594 453.172 229.484 453.172 233.176C453.172 236.73 454.08 239.533 455.896 241.584C457.713 243.635 460.145 244.66 463.191 244.66C466.297 244.66 468.68 243.654 470.34 241.643C472.02 239.631 472.859 236.77 472.859 233.059C472.859 229.309 472.02 226.418 470.34 224.387C468.68 222.355 466.297 221.34 463.191 221.34ZM523.25 218L514.256 248H509.275L503.094 226.525C502.859 225.705 502.703 224.777 502.625 223.742H502.508C502.449 224.445 502.244 225.354 501.893 226.467L495.184 248H490.379L481.297 218H486.336L492.547 240.559C492.742 241.242 492.879 242.141 492.957 243.254H493.191C493.25 242.395 493.426 241.477 493.719 240.5L500.633 218H505.027L511.238 240.617C511.434 241.34 511.58 242.238 511.678 243.312H511.912C511.951 242.551 512.117 241.652 512.41 240.617L518.504 218H523.25ZM527 246.916V241.76C529.617 243.693 532.498 244.66 535.643 244.66C539.861 244.66 541.971 243.254 541.971 240.441C541.971 239.641 541.785 238.967 541.414 238.42C541.062 237.854 540.574 237.355 539.949 236.926C539.344 236.496 538.621 236.115 537.781 235.783C536.961 235.432 536.072 235.07 535.115 234.699C533.787 234.172 532.615 233.645 531.6 233.117C530.604 232.57 529.764 231.965 529.08 231.301C528.416 230.617 527.908 229.846 527.557 228.986C527.225 228.127 527.059 227.121 527.059 225.969C527.059 224.562 527.381 223.322 528.025 222.248C528.67 221.154 529.529 220.246 530.604 219.523C531.678 218.781 532.898 218.225 534.266 217.854C535.652 217.482 537.078 217.297 538.543 217.297C541.141 217.297 543.465 217.746 545.516 218.645V223.508C543.309 222.062 540.77 221.34 537.898 221.34C537 221.34 536.189 221.447 535.467 221.662C534.744 221.857 534.119 222.141 533.592 222.512C533.084 222.883 532.684 223.332 532.391 223.859C532.117 224.367 531.98 224.934 531.98 225.559C531.98 226.34 532.117 226.994 532.391 227.521C532.684 228.049 533.104 228.518 533.65 228.928C534.197 229.338 534.861 229.709 535.643 230.041C536.424 230.373 537.312 230.734 538.309 231.125C539.637 231.633 540.828 232.16 541.883 232.707C542.938 233.234 543.836 233.84 544.578 234.523C545.32 235.188 545.887 235.959 546.277 236.838C546.688 237.717 546.893 238.762 546.893 239.973C546.893 241.457 546.561 242.746 545.896 243.84C545.252 244.934 544.383 245.842 543.289 246.564C542.195 247.287 540.936 247.824 539.51 248.176C538.084 248.527 536.59 248.703 535.027 248.703C531.941 248.703 529.266 248.107 527 246.916ZM556.766 210.383C555.906 210.383 555.174 210.09 554.568 209.504C553.963 208.918 553.66 208.176 553.66 207.277C553.66 206.379 553.963 205.637 554.568 205.051C555.174 204.445 555.906 204.143 556.766 204.143C557.645 204.143 558.387 204.445 558.992 205.051C559.617 205.637 559.93 206.379 559.93 207.277C559.93 208.137 559.617 208.869 558.992 209.475C558.387 210.08 557.645 210.383 556.766 210.383ZM559.109 248H554.305V218H559.109V248ZM593.738 248H588.934V230.891C588.934 224.523 586.609 221.34 581.961 221.34C579.559 221.34 577.566 222.248 575.984 224.064C574.422 225.861 573.641 228.137 573.641 230.891V248H568.836V218H573.641V222.98H573.758C576.023 219.191 579.305 217.297 583.602 217.297C586.883 217.297 589.393 218.361 591.131 220.49C592.869 222.6 593.738 225.656 593.738 229.66V248ZM628.426 245.598C628.426 256.613 623.152 262.121 612.605 262.121C608.895 262.121 605.652 261.418 602.879 260.012V255.207C606.258 257.082 609.48 258.02 612.547 258.02C619.93 258.02 623.621 254.094 623.621 246.242V242.961H623.504C621.219 246.789 617.781 248.703 613.191 248.703C609.461 248.703 606.453 247.375 604.168 244.719C601.902 242.043 600.77 238.459 600.77 233.967C600.77 228.869 601.99 224.816 604.432 221.809C606.893 218.801 610.252 217.297 614.51 217.297C618.553 217.297 621.551 218.918 623.504 222.16H623.621V218H628.426V245.598ZM623.621 234.436V230.012C623.621 227.629 622.811 225.588 621.189 223.889C619.588 222.189 617.586 221.34 615.184 221.34C612.215 221.34 609.891 222.424 608.211 224.592C606.531 226.74 605.691 229.758 605.691 233.645C605.691 236.984 606.492 239.66 608.094 241.672C609.715 243.664 611.854 244.66 614.51 244.66C617.205 244.66 619.393 243.703 621.072 241.789C622.771 239.875 623.621 237.424 623.621 234.436Z" fill="white"></path></g></g><defs><linearGradient id="paint0_linear_65_71" x1="114.27" y1="73.246" x2="114.27" y2="83.8934" gradientUnits="userSpaceOnUse"><stop stop-color="#263238" stop-opacity="0.35"></stop><stop offset="0.42" stop-color="#263238" stop-opacity="0.15"></stop><stop offset="0.89" stop-color="#263238" stop-opacity="0.02"></stop><stop offset="1" stop-color="#263238" stop-opacity="0"></stop></linearGradient><clipPath id="clip0_65_71"><rect width="767" height="300" fill="white"></rect></clipPath></defs></svg>