<svg width="158" height="154" viewBox="0 0 158 154" fill="none" xmlns="http://www.w3.org/2000/svg">
<path d="M14.1319 0C6.8963 0 0.9923 5.9106 0.1656 13.5071L70.659 61.2L141.153 13.5071C140.326 5.9106 134.422 0 127.186 0H14.1319ZM0 28.702V107.1C0 115.553 6.324 122.4 14.1319 122.4H74.758C82.276 103.581 98.81 94.594 113.055 92.368V76.5C113.055 72.277 116.22 68.85 120.121 68.85H130.112C131.985 68.85 133.787 69.653 135.108 71.091L141.319 77.815V28.702L70.659 76.5L0 28.702ZM127.186 84.15V107.1H120.121C120.121 107.1 111.58 106.995 102.828 111.732C94.077 116.469 84.791 127.5 84.791 145.35V153H98.923V145.35C98.923 132.6 103.769 128.331 109.149 125.418C114.529 122.505 120.121 122.4 120.121 122.4H127.186V145.35L155.45 114.75L127.186 84.15Z" fill="#00B67A"/>
<path d="M127.986 144.565L156 114.895L127.711 83.772V106.751L121.943 107.042L116.725 107.333L111.781 108.496L105.19 110.241L101.619 112.278L98.5981 114.605L95.8521 116.932L93.3801 119.549L90.9081 123.622L88.7111 127.985L85.9651 137.002L85.1411 143.692V153H99.1481V143.692L99.9721 137.002L100.521 133.802L101.619 130.603L103.267 128.276L105.739 126.24L109.31 124.785L110.957 124.203L112.605 123.622L115.626 122.749L119.472 122.458H127.986V144.565Z" fill="white" stroke="#00B67A" stroke-width="2"/>
</svg>
