<svg width="191" height="183" viewBox="0 0 191 183" fill="none" xmlns="http://www.w3.org/2000/svg">
<path d="M171.023 91.515V92.01H171.659C181.732 92.01 190.098 99.8407 190.098 109.733V127.951C190.098 137.842 181.732 145.673 171.659 145.673H171.023V146.168C171.023 166.116 154.111 182.109 133.509 182.109H85.821C75.748 182.109 67.3817 174.277 67.3817 164.386C67.3817 154.494 75.748 146.663 85.821 146.663C95.8939 146.663 104.26 154.494 104.26 164.386V164.881H104.896H133.509C144.514 164.881 153.22 156.408 153.22 146.168V127.951V109.733C153.22 94.4655 140.241 81.911 123.971 81.911H47.6707C31.3984 81.911 18.4221 94.6219 18.4221 109.733C18.4221 112.871 17.3816 115.015 15.7938 116.368C14.2115 117.718 12.0121 118.347 9.52039 118.347C4.7221 118.347 0.618652 114.587 0.618652 109.733V82.4061C0.618652 37.2994 38.8761 0.920898 85.821 0.920898H95.3585C105.431 0.920898 113.798 8.75239 113.798 18.6437V19.1387H114.434H114.435H114.44L114.468 19.1389C114.493 19.1391 114.532 19.1396 114.584 19.1405C114.687 19.1424 114.842 19.1461 115.047 19.1538C115.455 19.1689 116.058 19.1994 116.828 19.2607C118.368 19.3833 120.576 19.6291 123.227 20.1215C128.531 21.1065 135.605 23.0768 142.676 27.0165C156.787 34.8777 171.023 50.6546 171.023 82.4061V91.515Z" fill="#00B67A" stroke="#00B67A"/>
</svg>
