<svg width="220" height="200" viewBox="0 0 220 200" fill="none" xmlns="http://www.w3.org/2000/svg">
<mask id="mask0_18_55" style="mask-type:luminance" maskUnits="userSpaceOnUse" x="0" y="0" width="223" height="201">
<path d="M222.543 0H0V200.99H222.543V0Z" fill="white"/>
</mask>
<g mask="url(#mask0_18_55)">
<path d="M182.42 122.103L182.416 122.433L182.805 122.562C188.108 124.328 192.023 129.144 192.023 134.95C192.023 141.45 187.158 146.731 180.908 147.868L180.48 147.946L180.422 148.284C177.817 163.359 172.214 173.511 160.971 179.925C149.696 186.358 132.621 189.109 106.821 189.109C76.8872 189.109 51.0059 172.418 38.7422 148.159L38.5372 147.753L37.9945 147.86C37.1219 148.033 36.2205 148.119 35.2892 148.119C27.8585 148.119 21.6187 142.319 21.6187 134.95C21.6187 129.072 25.6361 124.216 31.0369 122.502L31.4585 122.368L31.4317 122.014C31.4235 121.907 31.4154 121.799 31.4071 121.692C31.2811 120.039 31.1562 118.401 31.1562 116.733C31.1562 76.6633 65.1505 44.3562 106.821 44.3562C148.491 44.3562 182.486 76.6633 182.486 116.733C182.486 117.901 182.467 119.008 182.449 120.113C182.437 120.772 182.426 121.432 182.42 122.103Z" fill="white" stroke="#00B67A"/>
<path d="M192.023 98.515V99.01H192.659C202.732 99.01 211.098 106.841 211.098 116.733V134.951C211.098 144.842 202.732 152.673 192.659 152.673H192.023V153.168C192.023 173.116 175.111 189.109 154.509 189.109H106.821C96.748 189.109 88.3817 181.277 88.3817 171.386C88.3817 161.494 96.748 153.663 106.821 153.663C116.894 153.663 125.26 161.494 125.26 171.386V171.881H125.896H154.509C165.514 171.881 174.22 163.408 174.22 153.168V134.951V116.733C174.22 101.465 161.241 88.911 144.971 88.911H68.6707C52.3984 88.911 39.4221 101.622 39.4221 116.733C39.4221 119.871 38.3816 122.015 36.7938 123.368C35.2115 124.718 33.0121 125.347 30.5204 125.347C25.7221 125.347 21.6187 121.587 21.6187 116.733V89.4061C21.6187 44.2994 59.8761 7.9209 106.821 7.9209H116.359C126.431 7.9209 134.798 15.7524 134.798 25.6437V26.1387H135.434H135.435H135.44L135.468 26.1389C135.493 26.1391 135.532 26.1396 135.584 26.1405C135.687 26.1424 135.842 26.1461 136.047 26.1538C136.455 26.1689 137.058 26.1994 137.828 26.2607C139.368 26.3833 141.576 26.6291 144.227 27.1215C149.531 28.1065 156.605 30.0768 163.676 34.0165C177.787 41.8777 192.023 57.6546 192.023 89.4061V98.515Z" fill="#00B67A" stroke="#00B67A"/>
<path d="M118.381 112.673H118.829L118.98 112.345C122.597 104.45 130.786 99.01 140.203 99.01C152.889 99.01 163.411 108.9 163.421 121.287C163.421 133.674 152.898 143.564 140.211 143.564C129.096 143.564 119.651 135.986 117.473 125.761L117.384 125.347H116.846H96.8066H96.2687L96.1797 125.761C93.991 135.986 84.5563 143.564 73.4399 143.564C60.7537 143.564 50.2314 133.674 50.2314 121.287C50.2314 108.9 60.7537 99.01 73.4399 99.01C82.856 99.01 91.0448 104.45 94.6722 112.345L94.8228 112.673H95.2704H118.381ZM63.2665 121.287C63.2665 126.48 67.7178 130.891 73.4399 130.891C79.1612 130.891 83.6133 126.48 83.6133 121.287C83.6133 116.094 79.1612 111.683 73.4399 111.683C67.7178 111.683 63.2665 116.094 63.2665 121.287ZM130.029 121.287C130.029 126.48 134.481 130.891 140.203 130.891C145.924 130.891 150.376 126.48 150.376 121.287C150.376 116.094 145.924 111.683 140.203 111.683C134.481 111.683 130.029 116.094 130.029 121.287Z" fill="#00B67A" stroke="#00B67A"/>
</g>
</svg>
