<svg width="150" height="202" viewBox="0 0 150 202" fill="none" xmlns="http://www.w3.org/2000/svg">
<path d="M0 28.3748V47.6958C0 101.292 0.113697 138.188 32.5169 169.407C45.0234 181.415 75.4937 201.063 75.4937 201.063V10.582C43.7727 10.582 12.0517 24.1177 0 28.3748Z" fill="#149E71"/>
<path d="M149.638 28.1565C134.809 23.681 106.712 10.582 75.4927 10.582V201.063C75.4927 201.063 105.597 181.415 117.861 169.407C149.75 138.188 149.638 105.441 149.638 54.9004V28.1565Z" fill="#00B67A"/>
<path d="M149.64 27.7784V12.8461C149.64 7.4661 142.096 0 135.227 0H13.0611C6.3054 0 0 7.4661 0 12.8461V27.7784H149.64Z" fill="#E0E0E0"/>
<path d="M18.8724 19.842C21.106 19.842 22.9167 18.0653 22.9167 15.8737C22.9167 13.682 21.106 11.9053 18.8724 11.9053C16.6388 11.9053 14.8281 13.682 14.8281 15.8737C14.8281 18.0653 16.6388 19.842 18.8724 19.842Z" fill="white"/>
<path d="M35.0502 19.842C37.2838 19.842 39.0945 18.0653 39.0945 15.8737C39.0945 13.682 37.2838 11.9053 35.0502 11.9053C32.8166 11.9053 31.0059 13.682 31.0059 15.8737C31.0059 18.0653 32.8166 19.842 35.0502 19.842Z" fill="white"/>
<mask id="mask0_12_71" style="mask-type:luminance" maskUnits="userSpaceOnUse" x="0" y="10" width="150" height="191">
<path d="M75.4147 10.5869C41.4105 10.5869 11.8957 24.2101 0 28.3515V47.642C0 101.155 0.224503 137.992 32.2082 169.162C44.5527 181.15 74.5167 200.767 74.5167 200.767C74.5167 200.767 104.817 181.15 117.162 169.162C149.258 137.992 149.145 105.296 149.145 54.8355V28.1336C134.22 23.6652 107.398 10.5869 75.4147 10.5869Z" fill="white"/>
</mask>
<g mask="url(#mask0_12_71)">
<path d="M155.542 28.3516H-5.83594V41.2119H155.542V28.3516Z" fill="url(#paint0_linear_12_71)"/>
</g>
<mask id="mask1_12_71" style="mask-type:luminance" maskUnits="userSpaceOnUse" x="34" y="19" width="82" height="143">
<path d="M75.0347 19.7607C54.0493 19.7607 34.4102 34.0377 34.4102 34.0377C34.4102 34.0377 35.7569 63.5724 35.7569 75.4514C35.7569 101.063 40.8069 122.206 52.4782 138.009C59.0994 146.946 75.0347 161.55 75.0347 161.55C75.0347 161.55 90.5217 146.946 97.1427 138.009C108.815 122.206 113.528 101.063 113.528 75.4514C113.528 63.5724 115.099 34.0377 115.099 34.0377C115.099 34.0377 95.0107 19.7607 75.0347 19.7607Z" fill="white"/>
</mask>
<g mask="url(#mask1_12_71)">
<path d="M75.5957 188.143C88.9837 188.143 99.8357 177.604 99.8357 164.603C99.8357 151.601 88.9837 141.062 75.5957 141.062C62.2087 141.062 51.3555 151.601 51.3555 164.603C51.3555 177.604 62.2087 188.143 75.5957 188.143Z" fill="#FAFAFA"/>
<path d="M75.5956 205.471C52.59 205.471 33.9609 187.38 33.9609 165.038C33.9609 142.696 52.59 124.604 75.5956 124.604C98.6016 124.604 117.231 142.696 117.231 165.038C117.231 187.38 98.6016 205.471 75.5956 205.471ZM75.5956 132.56C57.0789 132.56 42.1532 147.055 42.1532 165.038C42.1532 183.02 57.0789 197.515 75.5956 197.515C94.1126 197.515 109.039 183.02 109.039 165.038C109.039 147.164 94.1126 132.56 75.5956 132.56Z" fill="#FAFAFA"/>
<path d="M75.5967 222.692C42.8275 222.692 16.2305 196.862 16.2305 165.038C16.2305 133.215 42.8275 107.385 75.5967 107.385C108.366 107.385 134.963 133.215 134.963 165.038C134.963 196.862 108.366 222.692 75.5967 222.692ZM75.5967 115.668C47.5408 115.668 24.7595 137.792 24.7595 165.038C24.7595 192.285 47.5408 214.409 75.5967 214.409C103.653 214.409 126.434 192.285 126.434 165.038C126.434 137.792 103.653 115.668 75.5967 115.668Z" fill="#FAFAFA"/>
<path d="M74.4737 93.6525C88.0467 93.6525 99.0507 82.9665 99.0507 69.7845C99.0507 56.6025 88.0467 45.917 74.4737 45.917C60.8997 45.917 49.8965 56.6025 49.8965 69.7845C49.8965 82.9665 60.8997 93.6525 74.4737 93.6525Z" fill="#FAFAFA"/>
</g>
<defs>
<linearGradient id="paint0_linear_12_71" x1="74.9087" y1="26.3095" x2="74.9087" y2="36.9569" gradientUnits="userSpaceOnUse">
<stop stop-color="#263238" stop-opacity="0.35"/>
<stop offset="0.42" stop-color="#263238" stop-opacity="0.15"/>
<stop offset="0.89" stop-color="#263238" stop-opacity="0.02"/>
<stop offset="1" stop-color="#263238" stop-opacity="0"/>
</linearGradient>
</defs>
</svg>
