<svg width="767" height="300" viewBox="0 0 767 300" fill="none" xmlns="http://www.w3.org/2000/svg"><g clip-path="url(#clip0_65_100)"><mask id="mask0_65_100" style="mask-type:luminance" maskUnits="userSpaceOnUse" x="0" y="0" width="767" height="300"><path d="M767 0H0V300H767V0Z" fill="white"></path></mask><g mask="url(#mask0_65_100)"><path d="M57.1319 74C49.8963 74 43.9923 79.9106 43.1656 87.5071L113.659 135.2L184.153 87.5071C183.326 79.9106 177.422 74 170.186 74H57.1319ZM43 102.702V181.1C43 189.553 49.324 196.4 57.1319 196.4H117.758C125.276 177.581 141.81 168.594 156.055 166.368V150.5C156.055 146.277 159.22 142.85 163.121 142.85H173.112C174.985 142.85 176.787 143.653 178.108 145.091L184.319 151.815V102.702L113.659 150.5L43 102.702ZM170.186 158.15V181.1H163.121C163.121 181.1 154.58 180.995 145.828 185.732C137.077 190.469 127.791 201.5 127.791 219.35V227H141.923V219.35C141.923 206.6 146.769 202.331 152.149 199.418C157.529 196.505 163.121 196.4 163.121 196.4H170.186V219.35L198.45 188.75L170.186 158.15Z" fill="#00B67A"></path><path d="M170.986 218.565L199 188.895L170.711 157.772V180.751L164.943 181.042L159.725 181.333L154.781 182.496L148.19 184.241L144.619 186.278L141.598 188.605L138.852 190.932L136.38 193.549L133.908 197.622L131.711 201.985L128.965 211.002L128.141 217.692V227H142.148V217.692L142.972 211.002L143.521 207.802L144.619 204.603L146.267 202.276L148.739 200.24L152.31 198.785L153.957 198.203L155.605 197.622L158.626 196.749L162.472 196.458H170.986V218.565Z" fill="white" stroke="#00B67A" stroke-width="2"></path><path d="M299.789 76.2578H280.023V90.0078H298.188V100.242H280.023V122H267.406V65.9844H299.789V76.2578ZM341.117 122H329.438V116.258H329.281C326.599 120.737 322.628 122.977 317.367 122.977C313.487 122.977 310.427 121.883 308.188 119.695C305.974 117.482 304.867 114.539 304.867 110.867C304.867 103.107 309.464 98.6277 318.656 97.4298L329.516 95.9844C329.516 91.6094 327.146 89.4219 322.406 89.4219C317.641 89.4219 313.109 90.8412 308.812 93.6798V84.3828C310.531 83.4974 312.875 82.7162 315.844 82.0392C318.839 81.3621 321.56 81.0234 324.008 81.0234C335.414 81.0234 341.117 86.7136 341.117 98.0939V122ZM329.516 105.75V103.055L322.25 103.992C318.24 104.513 316.234 106.323 316.234 109.422C316.234 110.828 316.716 111.987 317.68 112.898C318.669 113.784 319.997 114.227 321.664 114.227C323.982 114.227 325.87 113.432 327.328 111.844C328.786 110.229 329.516 108.198 329.516 105.75ZM348.266 120.945V110.945C350.297 112.169 352.315 113.081 354.32 113.68C356.352 114.279 358.266 114.578 360.062 114.578C362.25 114.578 363.969 114.279 365.219 113.68C366.495 113.081 367.133 112.169 367.133 110.945C367.133 110.164 366.846 109.513 366.273 108.992C365.701 108.471 364.958 108.016 364.047 107.625C363.161 107.234 362.185 106.883 361.117 106.57C360.049 106.258 359.021 105.906 358.031 105.516C356.443 104.917 355.036 104.279 353.812 103.602C352.615 102.898 351.599 102.091 350.766 101.18C349.958 100.268 349.333 99.2136 348.891 98.0157C348.474 96.8178 348.266 95.3984 348.266 93.7578C348.266 91.5182 348.747 89.5912 349.711 87.9767C350.701 86.3621 352.003 85.0469 353.617 84.0312C355.258 82.9896 357.12 82.2345 359.203 81.7657C361.312 81.2709 363.5 81.0234 365.766 81.0234C367.536 81.0234 369.333 81.1668 371.156 81.4532C372.979 81.7136 374.776 82.1042 376.547 82.625V92.1562C374.984 91.2448 373.305 90.5677 371.508 90.125C369.737 89.6562 367.992 89.4219 366.273 89.4219C365.466 89.4219 364.698 89.5 363.969 89.6562C363.266 89.7865 362.641 89.9948 362.094 90.2812C361.547 90.5417 361.117 90.8932 360.805 91.3359C360.492 91.7526 360.336 92.2344 360.336 92.7812C360.336 93.5104 360.57 94.1354 361.039 94.6562C361.508 95.1771 362.12 95.6328 362.875 96.0234C363.63 96.388 364.464 96.7267 365.375 97.0392C366.312 97.3256 367.237 97.625 368.148 97.9375C369.789 98.5104 371.273 99.1354 372.602 99.8125C373.93 100.49 375.062 101.284 376 102.195C376.964 103.107 377.693 104.174 378.188 105.398C378.708 106.622 378.969 108.081 378.969 109.773C378.969 112.143 378.448 114.174 377.406 115.867C376.391 117.534 375.023 118.901 373.305 119.969C371.612 121.01 369.646 121.766 367.406 122.234C365.193 122.729 362.888 122.977 360.492 122.977C356.091 122.977 352.016 122.299 348.266 120.945ZM410.297 121.531C408.474 122.495 405.727 122.977 402.055 122.977C393.357 122.977 389.008 118.458 389.008 109.422V91.1017H382.523V82H389.008V73.3673L401.312 69.8517V82H410.297V91.1017H401.312V107.273C401.312 111.44 402.966 113.523 406.273 113.523C407.576 113.523 408.917 113.146 410.297 112.391V121.531ZM440.609 122V65.9844H460.453C480.349 65.9844 490.297 75.086 490.297 93.2892C490.297 102.013 487.576 108.979 482.133 114.188C476.716 119.396 469.49 122 460.453 122H440.609ZM453.227 76.2578V111.766H459.477C464.945 111.766 469.229 110.125 472.328 106.844C475.453 103.562 477.016 99.0964 477.016 93.4453C477.016 88.1068 475.466 83.9142 472.367 80.8673C469.294 77.7944 464.971 76.2578 459.398 76.2578H453.227ZM534.32 105.516H508.227C508.643 111.323 512.302 114.227 519.203 114.227C523.604 114.227 527.471 113.185 530.805 111.102V120.008C527.107 121.987 522.302 122.977 516.391 122.977C509.932 122.977 504.919 121.193 501.352 117.625C497.784 114.031 496 109.031 496 102.625C496 95.9844 497.927 90.7241 501.781 86.8439C505.635 82.9636 510.375 81.0234 516 81.0234C521.833 81.0234 526.339 82.7553 529.516 86.2189C532.719 89.6824 534.32 94.3828 534.32 100.32V105.516ZM522.875 97.9375C522.875 92.2083 520.557 89.3439 515.922 89.3439C513.943 89.3439 512.224 90.1642 510.766 91.8048C509.333 93.4454 508.461 95.4896 508.148 97.9375H522.875ZM554.008 122H541.664V62.7812H554.008V122ZM570.648 75.6719C568.565 75.6719 566.859 75.0599 565.531 73.8359C564.203 72.5859 563.539 71.0626 563.539 69.2657C563.539 67.4168 564.203 65.9062 565.531 64.7344C566.859 63.5625 568.565 62.9767 570.648 62.9767C572.758 62.9767 574.464 63.5625 575.766 64.7344C577.094 65.9062 577.758 67.4168 577.758 69.2657C577.758 71.1407 577.094 72.6771 575.766 73.875C574.464 75.0729 572.758 75.6719 570.648 75.6719ZM576.742 122H564.398V82H576.742V122ZM625.219 82L610.336 122H596.273L582.094 82H595.297L602.25 106.648C603.031 109.435 603.487 111.805 603.617 113.758H603.773C603.956 111.909 604.438 109.617 605.219 106.883L612.328 82H625.219ZM666.43 105.516H640.336C640.753 111.323 644.411 114.227 651.312 114.227C655.714 114.227 659.581 113.185 662.914 111.102V120.008C659.216 121.987 654.411 122.977 648.5 122.977C642.042 122.977 637.029 121.193 633.461 117.625C629.893 114.031 628.109 109.031 628.109 102.625C628.109 95.9844 630.036 90.7241 633.891 86.8439C637.745 82.9636 642.484 81.0234 648.109 81.0234C653.943 81.0234 658.448 82.7553 661.625 86.2189C664.828 89.6824 666.43 94.3828 666.43 100.32V105.516ZM654.984 97.9375C654.984 92.2083 652.667 89.3439 648.031 89.3439C646.052 89.3439 644.333 90.1642 642.875 91.8048C641.443 93.4454 640.57 95.4896 640.258 97.9375H654.984ZM699.867 93.1328C698.383 92.3255 696.651 91.9219 694.672 91.9219C691.99 91.9219 689.893 92.9116 688.383 94.8907C686.872 96.8439 686.117 99.5131 686.117 102.898V122H673.773V82H686.117V89.4219H686.273C688.227 84.0052 691.742 81.2969 696.82 81.2969C698.122 81.2969 699.138 81.4532 699.867 81.7657V93.1328ZM743.734 82L727.484 125.203C723.578 135.594 717.693 140.789 709.828 140.789C706.833 140.789 704.372 140.451 702.445 139.773V129.93C704.086 130.893 705.87 131.375 707.797 131.375C710.974 131.375 713.188 129.878 714.438 126.883L716.547 121.922L700.297 82H713.969L721.43 106.336C721.898 107.846 722.263 109.63 722.523 111.688H722.68C722.914 110.177 723.344 108.419 723.969 106.414L731.508 82H743.734Z" fill="#787878"></path><path d="M299.789 76.2578H280.023V90.0078H298.188V100.242H280.023V122H267.406V65.9844H299.789V76.2578ZM341.117 122H329.438V116.258H329.281C326.599 120.737 322.628 122.977 317.367 122.977C313.487 122.977 310.427 121.883 308.188 119.695C305.974 117.482 304.867 114.539 304.867 110.867C304.867 103.107 309.464 98.6277 318.656 97.4298L329.516 95.9844C329.516 91.6094 327.146 89.4219 322.406 89.4219C317.641 89.4219 313.109 90.8412 308.812 93.6798V84.3828C310.531 83.4974 312.875 82.7162 315.844 82.0392C318.839 81.3621 321.56 81.0234 324.008 81.0234C335.414 81.0234 341.117 86.7136 341.117 98.0939V122ZM329.516 105.75V103.055L322.25 103.992C318.24 104.513 316.234 106.323 316.234 109.422C316.234 110.828 316.716 111.987 317.68 112.898C318.669 113.784 319.997 114.227 321.664 114.227C323.982 114.227 325.87 113.432 327.328 111.844C328.786 110.229 329.516 108.198 329.516 105.75ZM348.266 120.945V110.945C350.297 112.169 352.315 113.081 354.32 113.68C356.352 114.279 358.266 114.578 360.062 114.578C362.25 114.578 363.969 114.279 365.219 113.68C366.495 113.081 367.133 112.169 367.133 110.945C367.133 110.164 366.846 109.513 366.273 108.992C365.701 108.471 364.958 108.016 364.047 107.625C363.161 107.234 362.185 106.883 361.117 106.57C360.049 106.258 359.021 105.906 358.031 105.516C356.443 104.917 355.036 104.279 353.812 103.602C352.615 102.898 351.599 102.091 350.766 101.18C349.958 100.268 349.333 99.2136 348.891 98.0157C348.474 96.8178 348.266 95.3984 348.266 93.7578C348.266 91.5182 348.747 89.5912 349.711 87.9767C350.701 86.3621 352.003 85.0469 353.617 84.0312C355.258 82.9896 357.12 82.2345 359.203 81.7657C361.312 81.2709 363.5 81.0234 365.766 81.0234C367.536 81.0234 369.333 81.1668 371.156 81.4532C372.979 81.7136 374.776 82.1042 376.547 82.625V92.1562C374.984 91.2448 373.305 90.5677 371.508 90.125C369.737 89.6562 367.992 89.4219 366.273 89.4219C365.466 89.4219 364.698 89.5 363.969 89.6562C363.266 89.7865 362.641 89.9948 362.094 90.2812C361.547 90.5417 361.117 90.8932 360.805 91.3359C360.492 91.7526 360.336 92.2344 360.336 92.7812C360.336 93.5104 360.57 94.1354 361.039 94.6562C361.508 95.1771 362.12 95.6328 362.875 96.0234C363.63 96.388 364.464 96.7267 365.375 97.0392C366.312 97.3256 367.237 97.625 368.148 97.9375C369.789 98.5104 371.273 99.1354 372.602 99.8125C373.93 100.49 375.062 101.284 376 102.195C376.964 103.107 377.693 104.174 378.188 105.398C378.708 106.622 378.969 108.081 378.969 109.773C378.969 112.143 378.448 114.174 377.406 115.867C376.391 117.534 375.023 118.901 373.305 119.969C371.612 121.01 369.646 121.766 367.406 122.234C365.193 122.729 362.888 122.977 360.492 122.977C356.091 122.977 352.016 122.299 348.266 120.945ZM410.297 121.531C408.474 122.495 405.727 122.977 402.055 122.977C393.357 122.977 389.008 118.458 389.008 109.422V91.1017H382.523V82H389.008V73.3673L401.312 69.8517V82H410.297V91.1017H401.312V107.273C401.312 111.44 402.966 113.523 406.273 113.523C407.576 113.523 408.917 113.146 410.297 112.391V121.531ZM440.609 122V65.9844H460.453C480.349 65.9844 490.297 75.086 490.297 93.2892C490.297 102.013 487.576 108.979 482.133 114.188C476.716 119.396 469.49 122 460.453 122H440.609ZM453.227 76.2578V111.766H459.477C464.945 111.766 469.229 110.125 472.328 106.844C475.453 103.562 477.016 99.0964 477.016 93.4453C477.016 88.1068 475.466 83.9142 472.367 80.8673C469.294 77.7944 464.971 76.2578 459.398 76.2578H453.227ZM534.32 105.516H508.227C508.643 111.323 512.302 114.227 519.203 114.227C523.604 114.227 527.471 113.185 530.805 111.102V120.008C527.107 121.987 522.302 122.977 516.391 122.977C509.932 122.977 504.919 121.193 501.352 117.625C497.784 114.031 496 109.031 496 102.625C496 95.9844 497.927 90.7241 501.781 86.8439C505.635 82.9636 510.375 81.0234 516 81.0234C521.833 81.0234 526.339 82.7553 529.516 86.2189C532.719 89.6824 534.32 94.3828 534.32 100.32V105.516ZM522.875 97.9375C522.875 92.2083 520.557 89.3439 515.922 89.3439C513.943 89.3439 512.224 90.1642 510.766 91.8048C509.333 93.4454 508.461 95.4896 508.148 97.9375H522.875ZM554.008 122H541.664V62.7812H554.008V122ZM570.648 75.6719C568.565 75.6719 566.859 75.0599 565.531 73.8359C564.203 72.5859 563.539 71.0626 563.539 69.2657C563.539 67.4168 564.203 65.9062 565.531 64.7344C566.859 63.5625 568.565 62.9767 570.648 62.9767C572.758 62.9767 574.464 63.5625 575.766 64.7344C577.094 65.9062 577.758 67.4168 577.758 69.2657C577.758 71.1407 577.094 72.6771 575.766 73.875C574.464 75.0729 572.758 75.6719 570.648 75.6719ZM576.742 122H564.398V82H576.742V122ZM625.219 82L610.336 122H596.273L582.094 82H595.297L602.25 106.648C603.031 109.435 603.487 111.805 603.617 113.758H603.773C603.956 111.909 604.438 109.617 605.219 106.883L612.328 82H625.219ZM666.43 105.516H640.336C640.753 111.323 644.411 114.227 651.312 114.227C655.714 114.227 659.581 113.185 662.914 111.102V120.008C659.216 121.987 654.411 122.977 648.5 122.977C642.042 122.977 637.029 121.193 633.461 117.625C629.893 114.031 628.109 109.031 628.109 102.625C628.109 95.9844 630.036 90.7241 633.891 86.8439C637.745 82.9636 642.484 81.0234 648.109 81.0234C653.943 81.0234 658.448 82.7553 661.625 86.2189C664.828 89.6824 666.43 94.3828 666.43 100.32V105.516ZM654.984 97.9375C654.984 92.2083 652.667 89.3439 648.031 89.3439C646.052 89.3439 644.333 90.1642 642.875 91.8048C641.443 93.4454 640.57 95.4896 640.258 97.9375H654.984ZM699.867 93.1328C698.383 92.3255 696.651 91.9219 694.672 91.9219C691.99 91.9219 689.893 92.9116 688.383 94.8907C686.872 96.8439 686.117 99.5131 686.117 102.898V122H673.773V82H686.117V89.4219H686.273C688.227 84.0052 691.742 81.2969 696.82 81.2969C698.122 81.2969 699.138 81.4532 699.867 81.7657V93.1328ZM743.734 82L727.484 125.203C723.578 135.594 717.693 140.789 709.828 140.789C706.833 140.789 704.372 140.451 702.445 139.773V129.93C704.086 130.893 705.87 131.375 707.797 131.375C710.974 131.375 713.188 129.878 714.438 126.883L716.547 121.922L700.297 82H713.969L721.43 106.336C721.898 107.846 722.263 109.63 722.523 111.688H722.68C722.914 110.177 723.344 108.419 723.969 106.414L731.508 82H743.734Z" fill="#787878"></path><path d="M299.789 76.2578H280.023V90.0078H298.188V100.242H280.023V122H267.406V65.9844H299.789V76.2578ZM341.117 122H329.438V116.258H329.281C326.599 120.737 322.628 122.977 317.367 122.977C313.487 122.977 310.427 121.883 308.188 119.695C305.974 117.482 304.867 114.539 304.867 110.867C304.867 103.107 309.464 98.6277 318.656 97.4298L329.516 95.9844C329.516 91.6094 327.146 89.4219 322.406 89.4219C317.641 89.4219 313.109 90.8412 308.812 93.6798V84.3828C310.531 83.4974 312.875 82.7162 315.844 82.0392C318.839 81.3621 321.56 81.0234 324.008 81.0234C335.414 81.0234 341.117 86.7136 341.117 98.0939V122ZM329.516 105.75V103.055L322.25 103.992C318.24 104.513 316.234 106.323 316.234 109.422C316.234 110.828 316.716 111.987 317.68 112.898C318.669 113.784 319.997 114.227 321.664 114.227C323.982 114.227 325.87 113.432 327.328 111.844C328.786 110.229 329.516 108.198 329.516 105.75ZM348.266 120.945V110.945C350.297 112.169 352.315 113.081 354.32 113.68C356.352 114.279 358.266 114.578 360.062 114.578C362.25 114.578 363.969 114.279 365.219 113.68C366.495 113.081 367.133 112.169 367.133 110.945C367.133 110.164 366.846 109.513 366.273 108.992C365.701 108.471 364.958 108.016 364.047 107.625C363.161 107.234 362.185 106.883 361.117 106.57C360.049 106.258 359.021 105.906 358.031 105.516C356.443 104.917 355.036 104.279 353.812 103.602C352.615 102.898 351.599 102.091 350.766 101.18C349.958 100.268 349.333 99.2136 348.891 98.0157C348.474 96.8178 348.266 95.3984 348.266 93.7578C348.266 91.5182 348.747 89.5912 349.711 87.9767C350.701 86.3621 352.003 85.0469 353.617 84.0312C355.258 82.9896 357.12 82.2345 359.203 81.7657C361.312 81.2709 363.5 81.0234 365.766 81.0234C367.536 81.0234 369.333 81.1668 371.156 81.4532C372.979 81.7136 374.776 82.1042 376.547 82.625V92.1562C374.984 91.2448 373.305 90.5677 371.508 90.125C369.737 89.6562 367.992 89.4219 366.273 89.4219C365.466 89.4219 364.698 89.5 363.969 89.6562C363.266 89.7865 362.641 89.9948 362.094 90.2812C361.547 90.5417 361.117 90.8932 360.805 91.3359C360.492 91.7526 360.336 92.2344 360.336 92.7812C360.336 93.5104 360.57 94.1354 361.039 94.6562C361.508 95.1771 362.12 95.6328 362.875 96.0234C363.63 96.388 364.464 96.7267 365.375 97.0392C366.312 97.3256 367.237 97.625 368.148 97.9375C369.789 98.5104 371.273 99.1354 372.602 99.8125C373.93 100.49 375.062 101.284 376 102.195C376.964 103.107 377.693 104.174 378.188 105.398C378.708 106.622 378.969 108.081 378.969 109.773C378.969 112.143 378.448 114.174 377.406 115.867C376.391 117.534 375.023 118.901 373.305 119.969C371.612 121.01 369.646 121.766 367.406 122.234C365.193 122.729 362.888 122.977 360.492 122.977C356.091 122.977 352.016 122.299 348.266 120.945ZM410.297 121.531C408.474 122.495 405.727 122.977 402.055 122.977C393.357 122.977 389.008 118.458 389.008 109.422V91.1017H382.523V82H389.008V73.3673L401.312 69.8517V82H410.297V91.1017H401.312V107.273C401.312 111.44 402.966 113.523 406.273 113.523C407.576 113.523 408.917 113.146 410.297 112.391V121.531ZM440.609 122V65.9844H460.453C480.349 65.9844 490.297 75.086 490.297 93.2892C490.297 102.013 487.576 108.979 482.133 114.188C476.716 119.396 469.49 122 460.453 122H440.609ZM453.227 76.2578V111.766H459.477C464.945 111.766 469.229 110.125 472.328 106.844C475.453 103.562 477.016 99.0964 477.016 93.4453C477.016 88.1068 475.466 83.9142 472.367 80.8673C469.294 77.7944 464.971 76.2578 459.398 76.2578H453.227ZM534.32 105.516H508.227C508.643 111.323 512.302 114.227 519.203 114.227C523.604 114.227 527.471 113.185 530.805 111.102V120.008C527.107 121.987 522.302 122.977 516.391 122.977C509.932 122.977 504.919 121.193 501.352 117.625C497.784 114.031 496 109.031 496 102.625C496 95.9844 497.927 90.7241 501.781 86.8439C505.635 82.9636 510.375 81.0234 516 81.0234C521.833 81.0234 526.339 82.7553 529.516 86.2189C532.719 89.6824 534.32 94.3828 534.32 100.32V105.516ZM522.875 97.9375C522.875 92.2083 520.557 89.3439 515.922 89.3439C513.943 89.3439 512.224 90.1642 510.766 91.8048C509.333 93.4454 508.461 95.4896 508.148 97.9375H522.875ZM554.008 122H541.664V62.7812H554.008V122ZM570.648 75.6719C568.565 75.6719 566.859 75.0599 565.531 73.8359C564.203 72.5859 563.539 71.0626 563.539 69.2657C563.539 67.4168 564.203 65.9062 565.531 64.7344C566.859 63.5625 568.565 62.9767 570.648 62.9767C572.758 62.9767 574.464 63.5625 575.766 64.7344C577.094 65.9062 577.758 67.4168 577.758 69.2657C577.758 71.1407 577.094 72.6771 575.766 73.875C574.464 75.0729 572.758 75.6719 570.648 75.6719ZM576.742 122H564.398V82H576.742V122ZM625.219 82L610.336 122H596.273L582.094 82H595.297L602.25 106.648C603.031 109.435 603.487 111.805 603.617 113.758H603.773C603.956 111.909 604.438 109.617 605.219 106.883L612.328 82H625.219ZM666.43 105.516H640.336C640.753 111.323 644.411 114.227 651.312 114.227C655.714 114.227 659.581 113.185 662.914 111.102V120.008C659.216 121.987 654.411 122.977 648.5 122.977C642.042 122.977 637.029 121.193 633.461 117.625C629.893 114.031 628.109 109.031 628.109 102.625C628.109 95.9844 630.036 90.7241 633.891 86.8439C637.745 82.9636 642.484 81.0234 648.109 81.0234C653.943 81.0234 658.448 82.7553 661.625 86.2189C664.828 89.6824 666.43 94.3828 666.43 100.32V105.516ZM654.984 97.9375C654.984 92.2083 652.667 89.3439 648.031 89.3439C646.052 89.3439 644.333 90.1642 642.875 91.8048C641.443 93.4454 640.57 95.4896 640.258 97.9375H654.984ZM699.867 93.1328C698.383 92.3255 696.651 91.9219 694.672 91.9219C691.99 91.9219 689.893 92.9116 688.383 94.8907C686.872 96.8439 686.117 99.5131 686.117 102.898V122H673.773V82H686.117V89.4219H686.273C688.227 84.0052 691.742 81.2969 696.82 81.2969C698.122 81.2969 699.138 81.4532 699.867 81.7657V93.1328ZM743.734 82L727.484 125.203C723.578 135.594 717.693 140.789 709.828 140.789C706.833 140.789 704.372 140.451 702.445 139.773V129.93C704.086 130.893 705.87 131.375 707.797 131.375C710.974 131.375 713.188 129.878 714.438 126.883L716.547 121.922L700.297 82H713.969L721.43 106.336C721.898 107.846 722.263 109.63 722.523 111.688H722.68C722.914 110.177 723.344 108.419 723.969 106.414L731.508 82H743.734Z" fill="white"></path><path d="M275.531 210.988V215.207H271.43V248.781H275.531V253H262.406V248.781H266.508V215.207H262.406V210.988H275.531ZM306.762 253H301.957V235.891C301.957 229.523 299.633 226.34 294.984 226.34C292.582 226.34 290.59 227.248 289.008 229.064C287.445 230.861 286.664 233.137 286.664 235.891V253H281.859V223H286.664V227.98H286.781C289.047 224.191 292.328 222.297 296.625 222.297C299.906 222.297 302.416 223.361 304.154 225.49C305.893 227.6 306.762 230.656 306.762 234.66V253ZM314.027 251.916V246.76C316.645 248.693 319.525 249.66 322.67 249.66C326.889 249.66 328.998 248.254 328.998 245.441C328.998 244.641 328.812 243.967 328.441 243.42C328.09 242.854 327.602 242.355 326.977 241.926C326.371 241.496 325.648 241.115 324.809 240.783C323.988 240.432 323.1 240.07 322.143 239.699C320.814 239.172 319.643 238.645 318.627 238.117C317.631 237.57 316.791 236.965 316.107 236.301C315.443 235.617 314.936 234.846 314.584 233.986C314.252 233.127 314.086 232.121 314.086 230.969C314.086 229.562 314.408 228.322 315.053 227.248C315.697 226.154 316.557 225.246 317.631 224.523C318.705 223.781 319.926 223.225 321.293 222.854C322.68 222.482 324.105 222.297 325.57 222.297C328.168 222.297 330.492 222.746 332.543 223.645V228.508C330.336 227.062 327.797 226.34 324.926 226.34C324.027 226.34 323.217 226.447 322.494 226.662C321.771 226.857 321.146 227.141 320.619 227.512C320.111 227.883 319.711 228.332 319.418 228.859C319.145 229.367 319.008 229.934 319.008 230.559C319.008 231.34 319.145 231.994 319.418 232.521C319.711 233.049 320.131 233.518 320.678 233.928C321.225 234.338 321.889 234.709 322.67 235.041C323.451 235.373 324.34 235.734 325.336 236.125C326.664 236.633 327.855 237.16 328.91 237.707C329.965 238.234 330.863 238.84 331.605 239.523C332.348 240.188 332.914 240.959 333.305 241.838C333.715 242.717 333.92 243.762 333.92 244.973C333.92 246.457 333.588 247.746 332.924 248.84C332.279 249.934 331.41 250.842 330.316 251.564C329.223 252.287 327.963 252.824 326.537 253.176C325.111 253.527 323.617 253.703 322.055 253.703C318.969 253.703 316.293 253.107 314.027 251.916ZM355.248 252.707C354.115 253.332 352.621 253.645 350.766 253.645C345.512 253.645 342.885 250.715 342.885 244.855V227.102H337.729V223H342.885V215.676L347.689 214.123V223H355.248V227.102H347.689V244.006C347.689 246.018 348.031 247.453 348.715 248.312C349.398 249.172 350.531 249.602 352.113 249.602C353.324 249.602 354.369 249.27 355.248 248.605V252.707ZM383.139 253H378.334V248.312H378.217C376.127 251.906 373.051 253.703 368.988 253.703C366 253.703 363.656 252.912 361.957 251.33C360.277 249.748 359.438 247.648 359.438 245.031C359.438 239.426 362.738 236.164 369.34 235.246L378.334 233.986C378.334 228.889 376.273 226.34 372.152 226.34C368.539 226.34 365.277 227.57 362.367 230.031V225.109C365.316 223.234 368.715 222.297 372.562 222.297C379.613 222.297 383.139 226.027 383.139 233.488V253ZM378.334 237.824L371.098 238.82C368.871 239.133 367.191 239.689 366.059 240.49C364.926 241.271 364.359 242.668 364.359 244.68C364.359 246.145 364.877 247.346 365.912 248.283C366.967 249.201 368.363 249.66 370.102 249.66C372.484 249.66 374.447 248.83 375.99 247.17C377.553 245.49 378.334 243.371 378.334 240.812V237.824ZM417.094 253H412.289V235.891C412.289 229.523 409.965 226.34 405.316 226.34C402.914 226.34 400.922 227.248 399.34 229.064C397.777 230.861 396.996 233.137 396.996 235.891V253H392.191V223H396.996V227.98H397.113C399.379 224.191 402.66 222.297 406.957 222.297C410.238 222.297 412.748 223.361 414.486 225.49C416.225 227.6 417.094 230.656 417.094 234.66V253ZM440.092 252.707C438.959 253.332 437.465 253.645 435.609 253.645C430.355 253.645 427.729 250.715 427.729 244.855V227.102H422.572V223H427.729V215.676L432.533 214.123V223H440.092V227.102H432.533V244.006C432.533 246.018 432.875 247.453 433.559 248.312C434.242 249.172 435.375 249.602 436.957 249.602C438.168 249.602 439.213 249.27 440.092 248.605V252.707ZM463.617 253V210.988H475.219C490.023 210.988 497.426 217.814 497.426 231.467C497.426 237.951 495.365 243.166 491.244 247.111C487.143 251.037 481.645 253 474.75 253H463.617ZM468.539 215.441V248.547H474.809C480.316 248.547 484.604 247.072 487.67 244.123C490.736 241.174 492.27 236.994 492.27 231.584C492.27 220.822 486.547 215.441 475.102 215.441H468.539ZM517.582 253.703C513.148 253.703 509.604 252.307 506.947 249.514C504.311 246.701 502.992 242.98 502.992 238.352C502.992 233.312 504.369 229.377 507.123 226.545C509.877 223.713 513.598 222.297 518.285 222.297C522.758 222.297 526.244 223.674 528.744 226.428C531.264 229.182 532.523 233 532.523 237.883C532.523 242.668 531.166 246.506 528.451 249.396C525.756 252.268 522.133 253.703 517.582 253.703ZM517.934 226.34C514.848 226.34 512.406 227.395 510.609 229.504C508.812 231.594 507.914 234.484 507.914 238.176C507.914 241.73 508.822 244.533 510.639 246.584C512.455 248.635 514.887 249.66 517.934 249.66C521.039 249.66 523.422 248.654 525.082 246.643C526.762 244.631 527.602 241.77 527.602 238.059C527.602 234.309 526.762 231.418 525.082 229.387C523.422 227.355 521.039 226.34 517.934 226.34ZM577.992 223L568.998 253H564.018L557.836 231.525C557.602 230.705 557.445 229.777 557.367 228.742H557.25C557.191 229.445 556.986 230.354 556.635 231.467L549.926 253H545.121L536.039 223H541.078L547.289 245.559C547.484 246.242 547.621 247.141 547.699 248.254H547.934C547.992 247.395 548.168 246.477 548.461 245.5L555.375 223H559.77L565.98 245.617C566.176 246.34 566.322 247.238 566.42 248.312H566.654C566.693 247.551 566.859 246.652 567.152 245.617L573.246 223H577.992ZM608.461 253H603.656V235.891C603.656 229.523 601.332 226.34 596.684 226.34C594.281 226.34 592.289 227.248 590.707 229.064C589.145 230.861 588.363 233.137 588.363 235.891V253H583.559V223H588.363V227.98H588.48C590.746 224.191 594.027 222.297 598.324 222.297C601.605 222.297 604.115 223.361 605.854 225.49C607.592 227.6 608.461 230.656 608.461 234.66V253ZM622.348 253H617.543V208.586H622.348V253ZM644.613 253.703C640.18 253.703 636.635 252.307 633.979 249.514C631.342 246.701 630.023 242.98 630.023 238.352C630.023 233.312 631.4 229.377 634.154 226.545C636.908 223.713 640.629 222.297 645.316 222.297C649.789 222.297 653.275 223.674 655.775 226.428C658.295 229.182 659.555 233 659.555 237.883C659.555 242.668 658.197 246.506 655.482 249.396C652.787 252.268 649.164 253.703 644.613 253.703ZM644.965 226.34C641.879 226.34 639.438 227.395 637.641 229.504C635.844 231.594 634.945 234.484 634.945 238.176C634.945 241.73 635.854 244.533 637.67 246.584C639.486 248.635 641.918 249.66 644.965 249.66C648.07 249.66 650.453 248.654 652.113 246.643C653.793 244.631 654.633 241.77 654.633 238.059C654.633 234.309 653.793 231.418 652.113 229.387C650.453 227.355 648.07 226.34 644.965 226.34ZM688.705 253H683.9V248.312H683.783C681.693 251.906 678.617 253.703 674.555 253.703C671.566 253.703 669.223 252.912 667.523 251.33C665.844 249.748 665.004 247.648 665.004 245.031C665.004 239.426 668.305 236.164 674.906 235.246L683.9 233.986C683.9 228.889 681.84 226.34 677.719 226.34C674.105 226.34 670.844 227.57 667.934 230.031V225.109C670.883 223.234 674.281 222.297 678.129 222.297C685.18 222.297 688.705 226.027 688.705 233.488V253ZM683.9 237.824L676.664 238.82C674.438 239.133 672.758 239.689 671.625 240.49C670.492 241.271 669.926 242.668 669.926 244.68C669.926 246.145 670.443 247.346 671.479 248.283C672.533 249.201 673.93 249.66 675.668 249.66C678.051 249.66 680.014 248.83 681.557 247.17C683.119 245.49 683.9 243.371 683.9 240.812V237.824ZM723.363 253H718.559V247.902H718.441C716.215 251.77 712.777 253.703 708.129 253.703C704.359 253.703 701.342 252.365 699.076 249.689C696.83 246.994 695.707 243.332 695.707 238.703C695.707 233.742 696.957 229.768 699.457 226.779C701.957 223.791 705.287 222.297 709.447 222.297C713.568 222.297 716.566 223.918 718.441 227.16H718.559V208.586H723.363V253ZM718.559 239.436V235.012C718.559 232.59 717.758 230.539 716.156 228.859C714.555 227.18 712.523 226.34 710.062 226.34C707.133 226.34 704.828 227.414 703.148 229.562C701.469 231.711 700.629 234.68 700.629 238.469C700.629 241.926 701.43 244.66 703.031 246.672C704.652 248.664 706.82 249.66 709.535 249.66C712.211 249.66 714.379 248.693 716.039 246.76C717.719 244.826 718.559 242.385 718.559 239.436Z" fill="#787878"></path><path d="M275.531 210.988V215.207H271.43V248.781H275.531V253H262.406V248.781H266.508V215.207H262.406V210.988H275.531ZM306.762 253H301.957V235.891C301.957 229.523 299.633 226.34 294.984 226.34C292.582 226.34 290.59 227.248 289.008 229.064C287.445 230.861 286.664 233.137 286.664 235.891V253H281.859V223H286.664V227.98H286.781C289.047 224.191 292.328 222.297 296.625 222.297C299.906 222.297 302.416 223.361 304.154 225.49C305.893 227.6 306.762 230.656 306.762 234.66V253ZM314.027 251.916V246.76C316.645 248.693 319.525 249.66 322.67 249.66C326.889 249.66 328.998 248.254 328.998 245.441C328.998 244.641 328.812 243.967 328.441 243.42C328.09 242.854 327.602 242.355 326.977 241.926C326.371 241.496 325.648 241.115 324.809 240.783C323.988 240.432 323.1 240.07 322.143 239.699C320.814 239.172 319.643 238.645 318.627 238.117C317.631 237.57 316.791 236.965 316.107 236.301C315.443 235.617 314.936 234.846 314.584 233.986C314.252 233.127 314.086 232.121 314.086 230.969C314.086 229.562 314.408 228.322 315.053 227.248C315.697 226.154 316.557 225.246 317.631 224.523C318.705 223.781 319.926 223.225 321.293 222.854C322.68 222.482 324.105 222.297 325.57 222.297C328.168 222.297 330.492 222.746 332.543 223.645V228.508C330.336 227.062 327.797 226.34 324.926 226.34C324.027 226.34 323.217 226.447 322.494 226.662C321.771 226.857 321.146 227.141 320.619 227.512C320.111 227.883 319.711 228.332 319.418 228.859C319.145 229.367 319.008 229.934 319.008 230.559C319.008 231.34 319.145 231.994 319.418 232.521C319.711 233.049 320.131 233.518 320.678 233.928C321.225 234.338 321.889 234.709 322.67 235.041C323.451 235.373 324.34 235.734 325.336 236.125C326.664 236.633 327.855 237.16 328.91 237.707C329.965 238.234 330.863 238.84 331.605 239.523C332.348 240.188 332.914 240.959 333.305 241.838C333.715 242.717 333.92 243.762 333.92 244.973C333.92 246.457 333.588 247.746 332.924 248.84C332.279 249.934 331.41 250.842 330.316 251.564C329.223 252.287 327.963 252.824 326.537 253.176C325.111 253.527 323.617 253.703 322.055 253.703C318.969 253.703 316.293 253.107 314.027 251.916ZM355.248 252.707C354.115 253.332 352.621 253.645 350.766 253.645C345.512 253.645 342.885 250.715 342.885 244.855V227.102H337.729V223H342.885V215.676L347.689 214.123V223H355.248V227.102H347.689V244.006C347.689 246.018 348.031 247.453 348.715 248.312C349.398 249.172 350.531 249.602 352.113 249.602C353.324 249.602 354.369 249.27 355.248 248.605V252.707ZM383.139 253H378.334V248.312H378.217C376.127 251.906 373.051 253.703 368.988 253.703C366 253.703 363.656 252.912 361.957 251.33C360.277 249.748 359.438 247.648 359.438 245.031C359.438 239.426 362.738 236.164 369.34 235.246L378.334 233.986C378.334 228.889 376.273 226.34 372.152 226.34C368.539 226.34 365.277 227.57 362.367 230.031V225.109C365.316 223.234 368.715 222.297 372.562 222.297C379.613 222.297 383.139 226.027 383.139 233.488V253ZM378.334 237.824L371.098 238.82C368.871 239.133 367.191 239.689 366.059 240.49C364.926 241.271 364.359 242.668 364.359 244.68C364.359 246.145 364.877 247.346 365.912 248.283C366.967 249.201 368.363 249.66 370.102 249.66C372.484 249.66 374.447 248.83 375.99 247.17C377.553 245.49 378.334 243.371 378.334 240.812V237.824ZM417.094 253H412.289V235.891C412.289 229.523 409.965 226.34 405.316 226.34C402.914 226.34 400.922 227.248 399.34 229.064C397.777 230.861 396.996 233.137 396.996 235.891V253H392.191V223H396.996V227.98H397.113C399.379 224.191 402.66 222.297 406.957 222.297C410.238 222.297 412.748 223.361 414.486 225.49C416.225 227.6 417.094 230.656 417.094 234.66V253ZM440.092 252.707C438.959 253.332 437.465 253.645 435.609 253.645C430.355 253.645 427.729 250.715 427.729 244.855V227.102H422.572V223H427.729V215.676L432.533 214.123V223H440.092V227.102H432.533V244.006C432.533 246.018 432.875 247.453 433.559 248.312C434.242 249.172 435.375 249.602 436.957 249.602C438.168 249.602 439.213 249.27 440.092 248.605V252.707ZM463.617 253V210.988H475.219C490.023 210.988 497.426 217.814 497.426 231.467C497.426 237.951 495.365 243.166 491.244 247.111C487.143 251.037 481.645 253 474.75 253H463.617ZM468.539 215.441V248.547H474.809C480.316 248.547 484.604 247.072 487.67 244.123C490.736 241.174 492.27 236.994 492.27 231.584C492.27 220.822 486.547 215.441 475.102 215.441H468.539ZM517.582 253.703C513.148 253.703 509.604 252.307 506.947 249.514C504.311 246.701 502.992 242.98 502.992 238.352C502.992 233.312 504.369 229.377 507.123 226.545C509.877 223.713 513.598 222.297 518.285 222.297C522.758 222.297 526.244 223.674 528.744 226.428C531.264 229.182 532.523 233 532.523 237.883C532.523 242.668 531.166 246.506 528.451 249.396C525.756 252.268 522.133 253.703 517.582 253.703ZM517.934 226.34C514.848 226.34 512.406 227.395 510.609 229.504C508.812 231.594 507.914 234.484 507.914 238.176C507.914 241.73 508.822 244.533 510.639 246.584C512.455 248.635 514.887 249.66 517.934 249.66C521.039 249.66 523.422 248.654 525.082 246.643C526.762 244.631 527.602 241.77 527.602 238.059C527.602 234.309 526.762 231.418 525.082 229.387C523.422 227.355 521.039 226.34 517.934 226.34ZM577.992 223L568.998 253H564.018L557.836 231.525C557.602 230.705 557.445 229.777 557.367 228.742H557.25C557.191 229.445 556.986 230.354 556.635 231.467L549.926 253H545.121L536.039 223H541.078L547.289 245.559C547.484 246.242 547.621 247.141 547.699 248.254H547.934C547.992 247.395 548.168 246.477 548.461 245.5L555.375 223H559.77L565.98 245.617C566.176 246.34 566.322 247.238 566.42 248.312H566.654C566.693 247.551 566.859 246.652 567.152 245.617L573.246 223H577.992ZM608.461 253H603.656V235.891C603.656 229.523 601.332 226.34 596.684 226.34C594.281 226.34 592.289 227.248 590.707 229.064C589.145 230.861 588.363 233.137 588.363 235.891V253H583.559V223H588.363V227.98H588.48C590.746 224.191 594.027 222.297 598.324 222.297C601.605 222.297 604.115 223.361 605.854 225.49C607.592 227.6 608.461 230.656 608.461 234.66V253ZM622.348 253H617.543V208.586H622.348V253ZM644.613 253.703C640.18 253.703 636.635 252.307 633.979 249.514C631.342 246.701 630.023 242.98 630.023 238.352C630.023 233.312 631.4 229.377 634.154 226.545C636.908 223.713 640.629 222.297 645.316 222.297C649.789 222.297 653.275 223.674 655.775 226.428C658.295 229.182 659.555 233 659.555 237.883C659.555 242.668 658.197 246.506 655.482 249.396C652.787 252.268 649.164 253.703 644.613 253.703ZM644.965 226.34C641.879 226.34 639.438 227.395 637.641 229.504C635.844 231.594 634.945 234.484 634.945 238.176C634.945 241.73 635.854 244.533 637.67 246.584C639.486 248.635 641.918 249.66 644.965 249.66C648.07 249.66 650.453 248.654 652.113 246.643C653.793 244.631 654.633 241.77 654.633 238.059C654.633 234.309 653.793 231.418 652.113 229.387C650.453 227.355 648.07 226.34 644.965 226.34ZM688.705 253H683.9V248.312H683.783C681.693 251.906 678.617 253.703 674.555 253.703C671.566 253.703 669.223 252.912 667.523 251.33C665.844 249.748 665.004 247.648 665.004 245.031C665.004 239.426 668.305 236.164 674.906 235.246L683.9 233.986C683.9 228.889 681.84 226.34 677.719 226.34C674.105 226.34 670.844 227.57 667.934 230.031V225.109C670.883 223.234 674.281 222.297 678.129 222.297C685.18 222.297 688.705 226.027 688.705 233.488V253ZM683.9 237.824L676.664 238.82C674.438 239.133 672.758 239.689 671.625 240.49C670.492 241.271 669.926 242.668 669.926 244.68C669.926 246.145 670.443 247.346 671.479 248.283C672.533 249.201 673.93 249.66 675.668 249.66C678.051 249.66 680.014 248.83 681.557 247.17C683.119 245.49 683.9 243.371 683.9 240.812V237.824ZM723.363 253H718.559V247.902H718.441C716.215 251.77 712.777 253.703 708.129 253.703C704.359 253.703 701.342 252.365 699.076 249.689C696.83 246.994 695.707 243.332 695.707 238.703C695.707 233.742 696.957 229.768 699.457 226.779C701.957 223.791 705.287 222.297 709.447 222.297C713.568 222.297 716.566 223.918 718.441 227.16H718.559V208.586H723.363V253ZM718.559 239.436V235.012C718.559 232.59 717.758 230.539 716.156 228.859C714.555 227.18 712.523 226.34 710.062 226.34C707.133 226.34 704.828 227.414 703.148 229.562C701.469 231.711 700.629 234.68 700.629 238.469C700.629 241.926 701.43 244.66 703.031 246.672C704.652 248.664 706.82 249.66 709.535 249.66C712.211 249.66 714.379 248.693 716.039 246.76C717.719 244.826 718.559 242.385 718.559 239.436Z" fill="#787878"></path><path d="M275.531 210.988V215.207H271.43V248.781H275.531V253H262.406V248.781H266.508V215.207H262.406V210.988H275.531ZM306.762 253H301.957V235.891C301.957 229.523 299.633 226.34 294.984 226.34C292.582 226.34 290.59 227.248 289.008 229.064C287.445 230.861 286.664 233.137 286.664 235.891V253H281.859V223H286.664V227.98H286.781C289.047 224.191 292.328 222.297 296.625 222.297C299.906 222.297 302.416 223.361 304.154 225.49C305.893 227.6 306.762 230.656 306.762 234.66V253ZM314.027 251.916V246.76C316.645 248.693 319.525 249.66 322.67 249.66C326.889 249.66 328.998 248.254 328.998 245.441C328.998 244.641 328.812 243.967 328.441 243.42C328.09 242.854 327.602 242.355 326.977 241.926C326.371 241.496 325.648 241.115 324.809 240.783C323.988 240.432 323.1 240.07 322.143 239.699C320.814 239.172 319.643 238.645 318.627 238.117C317.631 237.57 316.791 236.965 316.107 236.301C315.443 235.617 314.936 234.846 314.584 233.986C314.252 233.127 314.086 232.121 314.086 230.969C314.086 229.562 314.408 228.322 315.053 227.248C315.697 226.154 316.557 225.246 317.631 224.523C318.705 223.781 319.926 223.225 321.293 222.854C322.68 222.482 324.105 222.297 325.57 222.297C328.168 222.297 330.492 222.746 332.543 223.645V228.508C330.336 227.062 327.797 226.34 324.926 226.34C324.027 226.34 323.217 226.447 322.494 226.662C321.771 226.857 321.146 227.141 320.619 227.512C320.111 227.883 319.711 228.332 319.418 228.859C319.145 229.367 319.008 229.934 319.008 230.559C319.008 231.34 319.145 231.994 319.418 232.521C319.711 233.049 320.131 233.518 320.678 233.928C321.225 234.338 321.889 234.709 322.67 235.041C323.451 235.373 324.34 235.734 325.336 236.125C326.664 236.633 327.855 237.16 328.91 237.707C329.965 238.234 330.863 238.84 331.605 239.523C332.348 240.188 332.914 240.959 333.305 241.838C333.715 242.717 333.92 243.762 333.92 244.973C333.92 246.457 333.588 247.746 332.924 248.84C332.279 249.934 331.41 250.842 330.316 251.564C329.223 252.287 327.963 252.824 326.537 253.176C325.111 253.527 323.617 253.703 322.055 253.703C318.969 253.703 316.293 253.107 314.027 251.916ZM355.248 252.707C354.115 253.332 352.621 253.645 350.766 253.645C345.512 253.645 342.885 250.715 342.885 244.855V227.102H337.729V223H342.885V215.676L347.689 214.123V223H355.248V227.102H347.689V244.006C347.689 246.018 348.031 247.453 348.715 248.312C349.398 249.172 350.531 249.602 352.113 249.602C353.324 249.602 354.369 249.27 355.248 248.605V252.707ZM383.139 253H378.334V248.312H378.217C376.127 251.906 373.051 253.703 368.988 253.703C366 253.703 363.656 252.912 361.957 251.33C360.277 249.748 359.438 247.648 359.438 245.031C359.438 239.426 362.738 236.164 369.34 235.246L378.334 233.986C378.334 228.889 376.273 226.34 372.152 226.34C368.539 226.34 365.277 227.57 362.367 230.031V225.109C365.316 223.234 368.715 222.297 372.562 222.297C379.613 222.297 383.139 226.027 383.139 233.488V253ZM378.334 237.824L371.098 238.82C368.871 239.133 367.191 239.689 366.059 240.49C364.926 241.271 364.359 242.668 364.359 244.68C364.359 246.145 364.877 247.346 365.912 248.283C366.967 249.201 368.363 249.66 370.102 249.66C372.484 249.66 374.447 248.83 375.99 247.17C377.553 245.49 378.334 243.371 378.334 240.812V237.824ZM417.094 253H412.289V235.891C412.289 229.523 409.965 226.34 405.316 226.34C402.914 226.34 400.922 227.248 399.34 229.064C397.777 230.861 396.996 233.137 396.996 235.891V253H392.191V223H396.996V227.98H397.113C399.379 224.191 402.66 222.297 406.957 222.297C410.238 222.297 412.748 223.361 414.486 225.49C416.225 227.6 417.094 230.656 417.094 234.66V253ZM440.092 252.707C438.959 253.332 437.465 253.645 435.609 253.645C430.355 253.645 427.729 250.715 427.729 244.855V227.102H422.572V223H427.729V215.676L432.533 214.123V223H440.092V227.102H432.533V244.006C432.533 246.018 432.875 247.453 433.559 248.312C434.242 249.172 435.375 249.602 436.957 249.602C438.168 249.602 439.213 249.27 440.092 248.605V252.707ZM463.617 253V210.988H475.219C490.023 210.988 497.426 217.814 497.426 231.467C497.426 237.951 495.365 243.166 491.244 247.111C487.143 251.037 481.645 253 474.75 253H463.617ZM468.539 215.441V248.547H474.809C480.316 248.547 484.604 247.072 487.67 244.123C490.736 241.174 492.27 236.994 492.27 231.584C492.27 220.822 486.547 215.441 475.102 215.441H468.539ZM517.582 253.703C513.148 253.703 509.604 252.307 506.947 249.514C504.311 246.701 502.992 242.98 502.992 238.352C502.992 233.312 504.369 229.377 507.123 226.545C509.877 223.713 513.598 222.297 518.285 222.297C522.758 222.297 526.244 223.674 528.744 226.428C531.264 229.182 532.523 233 532.523 237.883C532.523 242.668 531.166 246.506 528.451 249.396C525.756 252.268 522.133 253.703 517.582 253.703ZM517.934 226.34C514.848 226.34 512.406 227.395 510.609 229.504C508.812 231.594 507.914 234.484 507.914 238.176C507.914 241.73 508.822 244.533 510.639 246.584C512.455 248.635 514.887 249.66 517.934 249.66C521.039 249.66 523.422 248.654 525.082 246.643C526.762 244.631 527.602 241.77 527.602 238.059C527.602 234.309 526.762 231.418 525.082 229.387C523.422 227.355 521.039 226.34 517.934 226.34ZM577.992 223L568.998 253H564.018L557.836 231.525C557.602 230.705 557.445 229.777 557.367 228.742H557.25C557.191 229.445 556.986 230.354 556.635 231.467L549.926 253H545.121L536.039 223H541.078L547.289 245.559C547.484 246.242 547.621 247.141 547.699 248.254H547.934C547.992 247.395 548.168 246.477 548.461 245.5L555.375 223H559.77L565.98 245.617C566.176 246.34 566.322 247.238 566.42 248.312H566.654C566.693 247.551 566.859 246.652 567.152 245.617L573.246 223H577.992ZM608.461 253H603.656V235.891C603.656 229.523 601.332 226.34 596.684 226.34C594.281 226.34 592.289 227.248 590.707 229.064C589.145 230.861 588.363 233.137 588.363 235.891V253H583.559V223H588.363V227.98H588.48C590.746 224.191 594.027 222.297 598.324 222.297C601.605 222.297 604.115 223.361 605.854 225.49C607.592 227.6 608.461 230.656 608.461 234.66V253ZM622.348 253H617.543V208.586H622.348V253ZM644.613 253.703C640.18 253.703 636.635 252.307 633.979 249.514C631.342 246.701 630.023 242.98 630.023 238.352C630.023 233.312 631.4 229.377 634.154 226.545C636.908 223.713 640.629 222.297 645.316 222.297C649.789 222.297 653.275 223.674 655.775 226.428C658.295 229.182 659.555 233 659.555 237.883C659.555 242.668 658.197 246.506 655.482 249.396C652.787 252.268 649.164 253.703 644.613 253.703ZM644.965 226.34C641.879 226.34 639.438 227.395 637.641 229.504C635.844 231.594 634.945 234.484 634.945 238.176C634.945 241.73 635.854 244.533 637.67 246.584C639.486 248.635 641.918 249.66 644.965 249.66C648.07 249.66 650.453 248.654 652.113 246.643C653.793 244.631 654.633 241.77 654.633 238.059C654.633 234.309 653.793 231.418 652.113 229.387C650.453 227.355 648.07 226.34 644.965 226.34ZM688.705 253H683.9V248.312H683.783C681.693 251.906 678.617 253.703 674.555 253.703C671.566 253.703 669.223 252.912 667.523 251.33C665.844 249.748 665.004 247.648 665.004 245.031C665.004 239.426 668.305 236.164 674.906 235.246L683.9 233.986C683.9 228.889 681.84 226.34 677.719 226.34C674.105 226.34 670.844 227.57 667.934 230.031V225.109C670.883 223.234 674.281 222.297 678.129 222.297C685.18 222.297 688.705 226.027 688.705 233.488V253ZM683.9 237.824L676.664 238.82C674.438 239.133 672.758 239.689 671.625 240.49C670.492 241.271 669.926 242.668 669.926 244.68C669.926 246.145 670.443 247.346 671.479 248.283C672.533 249.201 673.93 249.66 675.668 249.66C678.051 249.66 680.014 248.83 681.557 247.17C683.119 245.49 683.9 243.371 683.9 240.812V237.824ZM723.363 253H718.559V247.902H718.441C716.215 251.77 712.777 253.703 708.129 253.703C704.359 253.703 701.342 252.365 699.076 249.689C696.83 246.994 695.707 243.332 695.707 238.703C695.707 233.742 696.957 229.768 699.457 226.779C701.957 223.791 705.287 222.297 709.447 222.297C713.568 222.297 716.566 223.918 718.441 227.16H718.559V208.586H723.363V253ZM718.559 239.436V235.012C718.559 232.59 717.758 230.539 716.156 228.859C714.555 227.18 712.523 226.34 710.062 226.34C707.133 226.34 704.828 227.414 703.148 229.562C701.469 231.711 700.629 234.68 700.629 238.469C700.629 241.926 701.43 244.66 703.031 246.672C704.652 248.664 706.82 249.66 709.535 249.66C712.211 249.66 714.379 248.693 716.039 246.76C717.719 244.826 718.559 242.385 718.559 239.436Z" fill="white"></path></g></g><defs><clipPath id="clip0_65_100"><rect width="767" height="300" fill="white"></rect></clipPath></defs></svg>