<svg width="151" height="185" viewBox="0 0 151 185" fill="none" xmlns="http://www.w3.org/2000/svg">
<path d="M135 92.5V93H135.5C143.421 93 150 100.909 150 110.9V129.3C150 139.29 143.421 147.2 135.5 147.2H135V147.7C135 167.847 121.701 184 105.5 184H68C60.079 184 53.5 176.09 53.5 166.1C53.5 156.109 60.079 148.2 68 148.2C75.921 148.2 82.5 156.109 82.5 166.1V166.6H83H105.5C114.154 166.6 121 158.042 121 147.7V129.3V110.9C121 95.48 110.794 82.8 98 82.8H38C25.2041 82.8 15 95.638 15 110.9C15 114.07 14.1818 116.235 12.9332 117.602C11.6889 118.965 9.9594 119.6 8 119.6C4.2268 119.6 1 115.803 1 110.9V83.3C1 37.7423 31.0843 1 68 1H75.5C83.421 1 90 8.9098 90 18.9V19.4H90.5H90.501H90.505L90.527 19.4002C90.547 19.4004 90.577 19.4009 90.618 19.4018C90.699 19.4037 90.821 19.4075 90.982 19.4152C91.303 19.4305 91.777 19.4613 92.383 19.5232C93.594 19.647 95.33 19.8953 97.415 20.3926C101.586 21.3875 107.148 23.3775 112.709 27.3566C123.805 35.2964 135 51.231 135 83.3V92.5Z" fill="#00B67A" stroke="#00B67A"/>
</svg>
