<svg width="222" height="201" viewBox="0 0 222 201" fill="none" xmlns="http://www.w3.org/2000/svg">
<rect width="199" height="65" transform="translate(0 16)" fill="white"/>
<rect width="49.4487" height="64.7778" transform="translate(74.1729 40.3333)" fill="white"/>
<path d="M19.9296 0C9.72555 0 1.3994 7.72628 0.233538 17.6563L99.6472 80L199.062 17.6563C197.896 7.72628 189.569 0 179.365 0H19.9296ZM0 37.519V140C0 151.05 8.91846 160 19.9296 160H105.428C116.03 135.4 139.347 123.652 159.436 120.742V100C159.436 94.4797 163.9 90 169.401 90H183.491C186.133 90 188.674 91.0497 190.537 92.9294L199.296 101.719V37.519L99.6472 100L0 37.519ZM179.365 110V140H169.401C169.401 140 157.356 139.863 145.014 146.055C132.673 152.247 119.577 166.667 119.577 190V200H139.507V190C139.507 173.333 146.341 167.753 153.928 163.945C161.515 160.137 169.401 160 169.401 160H179.365V190L219.224 150L179.365 110Z" fill="#00B67A"/>
<path d="M180.493 188.974L220 150.19L180.105 109.506V139.544L171.971 139.924L164.612 140.305L157.64 141.825L148.345 144.106L143.309 146.769L139.049 149.81L135.176 152.852L131.69 156.273L128.204 161.597L125.105 167.301L121.233 179.088L120.071 187.833V200H139.824V187.833L140.986 179.088L141.761 174.905L143.309 170.723L145.633 167.681L149.119 165.02L154.155 163.118L156.478 162.357L158.802 161.597L163.062 160.456L168.486 160.076H180.493V188.974Z" fill="white" stroke="#00B67A" stroke-width="2"/>
</svg>
