<svg width="255" height="283" viewBox="0 0 255 283" fill="none" xmlns="http://www.w3.org/2000/svg">
<mask id="mask0_0_1" style="mask-type:luminance" maskUnits="userSpaceOnUse" x="40" y="40" width="175" height="203">
<path d="M215 40H40V243H215V40Z" fill="white"/>
</mask>
<g mask="url(#mask0_0_1)">
<path d="M183.448 163.324L183.445 163.657L183.751 163.788C187.921 165.571 191 170.435 191 176.3C191 182.865 187.174 188.198 182.259 189.347L181.923 189.425L181.877 189.767C179.829 204.993 175.423 215.246 166.582 221.724C157.715 228.222 144.288 231 124 231C100.461 231 80.1091 214.142 70.4653 189.641L70.3041 189.231L69.8774 189.339C69.1912 189.513 68.4824 189.6 67.75 189.6C61.9068 189.6 57 183.742 57 176.3C57 170.363 60.1592 165.458 64.4062 163.727L64.7377 163.592L64.7166 163.234C64.7102 163.126 64.7038 163.017 64.6973 162.909C64.5982 161.239 64.5 159.585 64.5 157.9C64.5 117.43 91.2319 84.7998 124 84.7998C156.768 84.7998 183.5 117.43 183.5 157.9C183.5 159.08 183.485 160.198 183.471 161.314C183.462 161.98 183.453 162.646 183.448 163.324Z" fill="white" stroke="#00B67A"/>
<path d="M191 139.5V140H191.5C199.421 140 206 147.909 206 157.9V176.3C206 186.29 199.421 194.2 191.5 194.2H191V194.7C191 214.847 177.701 231 161.5 231H124C116.079 231 109.5 223.09 109.5 213.1C109.5 203.109 116.079 195.2 124 195.2C131.921 195.2 138.5 203.109 138.5 213.1V213.6H139H161.5C170.154 213.6 177 205.042 177 194.7V176.3V157.9C177 142.48 166.794 129.8 154 129.8H94C81.2041 129.8 71 142.638 71 157.9C71 161.07 70.1818 163.235 68.9332 164.602C67.6889 165.965 65.9594 166.6 64 166.6C60.2268 166.6 57 162.803 57 157.9V130.3C57 84.7423 87.0843 48 124 48H131.5C139.421 48 146 55.9098 146 65.9V66.4H146.5H146.501H146.505L146.527 66.4002C146.547 66.4004 146.577 66.4009 146.618 66.4018C146.699 66.4037 146.821 66.4075 146.982 66.4152C147.303 66.4305 147.777 66.4613 148.383 66.5232C149.594 66.647 151.33 66.8953 153.415 67.3926C157.586 68.3875 163.148 70.3775 168.709 74.3566C179.805 82.2964 191 98.231 191 130.3V139.5Z" fill="#00B67A" stroke="#00B67A"/>
<path d="M133.09 153.8H133.443L133.561 153.468C136.406 145.494 142.845 140 150.25 140C160.226 140 168.5 149.989 168.508 162.5C168.508 175.011 160.233 185 150.257 185C141.516 185 134.089 177.346 132.376 167.018L132.306 166.6H131.883H116.125H115.702L115.632 167.018C113.911 177.346 106.492 185 97.7503 185C87.7743 185 79.5 175.011 79.5 162.5C79.5 149.989 87.7743 140 97.7503 140C105.155 140 111.594 145.494 114.447 153.468L114.565 153.8H114.917H133.09ZM89.7503 162.5C89.7503 167.745 93.2506 172.2 97.7503 172.2C102.249 172.2 105.75 167.745 105.75 162.5C105.75 157.255 102.249 152.8 97.7503 152.8C93.2506 152.8 89.7503 157.255 89.7503 162.5ZM142.25 162.5C142.25 167.745 145.751 172.2 150.25 172.2C154.749 172.2 158.25 167.745 158.25 162.5C158.25 157.255 154.749 152.8 150.25 152.8C145.751 152.8 142.25 157.255 142.25 162.5Z" fill="#00B67A" stroke="#00B67A"/>
</g>
</svg>
